<?xml version="1.0" encoding="UTF-8"?>
<!DOCTYPE svg PUBLIC "-//W3C//DTD SVG 1.1//EN" "http://www.w3.org/Graphics/SVG/1.1/DTD/svg11.dtd">
<svg xmlns="http://www.w3.org/2000/svg" version="1.1" width="679px" height="420px" style="shape-rendering:geometricPrecision; text-rendering:geometricPrecision; image-rendering:optimizeQuality; fill-rule:evenodd; clip-rule:evenodd" xmlns:xlink="http://www.w3.org/1999/xlink">
<g><path style="opacity:0.989" fill="#0f303e" d="M 138.5,-0.5 C 140.5,-0.5 142.5,-0.5 144.5,-0.5C 190.698,15.7342 237.031,31.9008 283.5,48C 261.582,54.4794 239.582,60.6461 217.5,66.5C 215.757,63.2496 213.423,60.4162 210.5,58C 188.719,47.5288 165.719,43.0288 141.5,44.5C 118.631,43.5511 96.6309,47.3844 75.5,56C 70.6455,58.3566 66.9788,61.8566 64.5,66.5C 58.5163,64.837 52.5163,63.1703 46.5,61.5C 46.5,61.1667 46.5,60.8333 46.5,60.5C 46.5,50.8333 46.5,41.1667 46.5,31.5C 77.3224,21.0049 107.989,10.3382 138.5,-0.5 Z"/></g>
<g><path style="opacity:1" fill="#a2aeb4" d="M 46.5,31.5 C 46.5,41.1667 46.5,50.8333 46.5,60.5C 45.5067,51.6822 45.1734,42.6822 45.5,33.5C 44.1667,33.5 42.8333,33.5 41.5,33.5C 42.9303,32.4625 44.597,31.7959 46.5,31.5 Z"/></g>
<g><path style="opacity:0.934" fill="#fefefe" d="M 39.5,33.5 C 40.1667,33.5 40.8333,33.5 41.5,33.5C 42.8333,33.5 44.1667,33.5 45.5,33.5C 45.1734,42.6822 45.5067,51.6822 46.5,60.5C 46.5,60.8333 46.5,61.1667 46.5,61.5C 46.3335,71.8387 46.5002,82.172 47,92.5C 52.6932,97.3433 52.8598,102.343 47.5,107.5C 51.6088,117.375 55.9422,127.042 60.5,136.5C 60.4208,137.93 60.7542,139.264 61.5,140.5C 60.8075,141.518 60.1408,142.518 59.5,143.5C 48.0204,147.785 36.687,147.452 25.5,142.5C 25.1667,141.833 24.8333,141.167 24.5,140.5C 28.8881,129.389 33.5548,118.389 38.5,107.5C 33.1009,102.269 33.2676,97.2689 39,92.5C 39.4998,81.505 39.6665,70.505 39.5,59.5C 39.5,50.8333 39.5,42.1667 39.5,33.5 Z"/></g>
<g><path style="opacity:0.957" fill="#0f2f3e" d="M 39.5,33.5 C 39.5,42.1667 39.5,50.8333 39.5,59.5C 26.1504,55.8297 12.8171,52.163 -0.5,48.5C -0.5,48.1667 -0.5,47.8333 -0.5,47.5C 12.9086,43.0306 26.242,38.3639 39.5,33.5 Z"/></g>
<g><path style="opacity:1" fill="#2d5771" d="M 141.5,44.5 C 141.5,61.5 141.5,78.5 141.5,95.5C 138.615,95.1936 135.948,95.5269 133.5,96.5C 116.061,96.7399 99.0609,99.5732 82.5,105C 74.449,107.576 68.449,112.409 64.5,119.5C 64.5,101.833 64.5,84.1667 64.5,66.5C 66.9788,61.8566 70.6455,58.3566 75.5,56C 96.6309,47.3844 118.631,43.5511 141.5,44.5 Z"/></g>
<g><path style="opacity:1" fill="#234b5f" d="M 141.5,44.5 C 165.719,43.0288 188.719,47.5288 210.5,58C 213.423,60.4162 215.757,63.2496 217.5,66.5C 217.5,80.5 217.5,94.5 217.5,108.5C 215.401,109.612 213.067,110.279 210.5,110.5C 193.565,102.06 175.565,97.5602 156.5,97C 148.841,96.5003 141.174,96.3336 133.5,96.5C 135.948,95.5269 138.615,95.1936 141.5,95.5C 141.5,78.5 141.5,61.5 141.5,44.5 Z"/></g>
<g><path style="opacity:1" fill="#0f3655" d="M 636.5,277.5 C 531.833,277.5 427.167,277.5 322.5,277.5C 323.93,273.646 325.597,269.979 327.5,266.5C 426.833,266.5 526.167,266.5 625.5,266.5C 625.831,203.595 625.498,140.762 624.5,78C 519.247,76.3378 413.914,76.0045 308.5,77C 307.522,83.4102 307.189,89.9102 307.5,96.5C 303.463,95.9347 299.797,94.6013 296.5,92.5C 296.623,86.1823 296.623,80.0156 296.5,74C 299.333,71.1667 302.167,68.3333 305,65.5C 412.667,65.5 520.333,65.5 628,65.5C 632.422,68.6644 635.089,72.9977 636,78.5C 636.5,144.832 636.667,211.166 636.5,277.5 Z"/></g>
<g><path style="opacity:0.118" fill="#742c37" d="M 432.5,80.5 C 430.5,80.5 428.5,80.5 426.5,80.5C 426.97,79.3065 427.97,78.6399 429.5,78.5C 431.03,78.6399 432.03,79.3065 432.5,80.5 Z"/></g>
<g><path style="opacity:0.361" fill="#862f3f" d="M 438.5,80.5 C 436.833,80.5 435.167,80.5 433.5,80.5C 433.369,79.7611 433.536,79.0944 434,78.5C 434.85,79.4239 435.85,79.4239 437,78.5C 438.03,78.8361 438.53,79.5028 438.5,80.5 Z"/></g>
<g><path style="opacity:1" fill="#fcf914" d="M 426.5,80.5 C 428.5,80.5 430.5,80.5 432.5,80.5C 432.833,80.5 433.167,80.5 433.5,80.5C 435.167,80.5 436.833,80.5 438.5,80.5C 441.533,80.1315 444.2,80.7982 446.5,82.5C 446.328,83.4916 446.662,84.1583 447.5,84.5C 448.529,87.8908 450.529,90.5574 453.5,92.5C 453.833,92.5 454.167,92.5 454.5,92.5C 455.6,93.5585 456.934,94.3918 458.5,95C 456.68,95.2004 455.347,96.0337 454.5,97.5C 451.215,97.9281 448.215,98.9281 445.5,100.5C 443.143,100.337 440.81,100.503 438.5,101C 437.663,102.011 437.33,103.178 437.5,104.5C 437.443,105.609 437.11,106.609 436.5,107.5C 434.115,110.653 432.782,114.32 432.5,118.5C 430.896,119.287 430.229,120.62 430.5,122.5C 429.596,123.209 429.263,124.209 429.5,125.5C 428.768,126.808 427.934,128.142 427,129.5C 426.699,137.525 426.199,145.525 425.5,153.5C 423.833,153.5 422.167,153.5 420.5,153.5C 420.5,152.167 420.5,150.833 420.5,149.5C 420.5,147.833 420.5,146.167 420.5,144.5C 420.198,141.941 420.532,139.607 421.5,137.5C 424.09,133.137 424.09,128.804 421.5,124.5C 421.309,120.738 420.642,117.071 419.5,113.5C 417.759,106.525 417.426,99.5254 418.5,92.5C 419.529,90.4832 420.529,88.4832 421.5,86.5C 422.401,85.7095 423.068,84.7095 423.5,83.5C 423.856,81.8102 424.856,80.8102 426.5,80.5 Z"/></g>
<g><path style="opacity:1" fill="#faf519" d="M 515.5,80.5 C 521.833,80.5 528.167,80.5 534.5,80.5C 534.738,82.4044 535.738,83.7377 537.5,84.5C 537.5,84.8333 537.5,85.1667 537.5,85.5C 537.738,87.4044 538.738,88.7377 540.5,89.5C 541.11,91.4341 542.11,93.1007 543.5,94.5C 543.5,95.1667 543.833,95.5 544.5,95.5C 544.296,98.5176 543.963,101.518 543.5,104.5C 543.5,105.167 543.5,105.833 543.5,106.5C 541.59,109.452 540.59,112.786 540.5,116.5C 539.181,120.744 538.181,125.078 537.5,129.5C 537.557,130.609 537.89,131.609 538.5,132.5C 538.116,136.489 538.783,140.155 540.5,143.5C 540.5,143.833 540.5,144.167 540.5,144.5C 540.5,147.5 540.5,150.5 540.5,153.5C 538.5,153.5 536.5,153.5 534.5,153.5C 534.5,152.167 534.5,150.833 534.5,149.5C 534.666,143.158 534.5,136.825 534,130.5C 533.8,128.68 532.966,127.347 531.5,126.5C 530.337,122.518 529.171,118.518 528,114.5C 527.583,113.244 526.75,112.577 525.5,112.5C 525.371,110.784 525.038,109.117 524.5,107.5C 524.672,106.508 524.338,105.842 523.5,105.5C 523.475,102.821 522.142,101.488 519.5,101.5C 514.609,100.99 509.942,99.9901 505.5,98.5C 503.208,96.7329 500.542,95.7329 497.5,95.5C 498.492,93.9735 499.992,93.3068 502,93.5C 505.551,95.7572 507.384,94.7572 507.5,90.5C 507.5,90.1667 507.5,89.8333 507.5,89.5C 508.167,88.8333 508.833,88.1667 509.5,87.5C 512.243,85.7607 514.243,83.4274 515.5,80.5 Z"/></g>
<g><path style="opacity:0.867" fill="#994b48" d="M 534.5,80.5 C 536.262,81.2623 537.262,82.5956 537.5,84.5C 535.738,83.7377 534.738,82.4044 534.5,80.5 Z"/></g>
<g><path style="opacity:0.02" fill="#863055" d="M 446.5,82.5 C 448.19,82.8564 449.19,83.8564 449.5,85.5C 448.833,85.1667 448.167,84.8333 447.5,84.5C 446.662,84.1583 446.328,83.4916 446.5,82.5 Z"/></g>
<g><path style="opacity:0.49" fill="#923c4f" d="M 515.5,80.5 C 514.243,83.4274 512.243,85.7607 509.5,87.5C 510.81,84.5268 512.81,82.1935 515.5,80.5 Z"/></g>
<g><path style="opacity:0.051" fill="#7e2444" d="M 423.5,83.5 C 423.068,84.7095 422.401,85.7095 421.5,86.5C 421.285,84.8212 421.952,83.8212 423.5,83.5 Z"/></g>
<g><path style="opacity:0.996" fill="#10303e" d="M 296.5,92.5 C 299.797,94.6013 303.463,95.9347 307.5,96.5C 324.021,102.675 340.687,108.675 357.5,114.5C 357.5,122.167 357.5,129.833 357.5,137.5C 352.457,138.678 347.457,140.011 342.5,141.5C 336.208,134.182 328.208,129.682 318.5,128C 302.178,124.332 285.845,123.166 269.5,124.5C 253.64,124.382 238.64,127.882 224.5,135C 221.614,136.385 219.614,138.551 218.5,141.5C 218.167,141.5 217.833,141.5 217.5,141.5C 199.709,137.136 182.043,132.302 164.5,127C 180.035,121.769 195.368,116.269 210.5,110.5C 213.067,110.279 215.401,109.612 217.5,108.5C 237.101,101.577 256.768,94.7437 276.5,88C 283.487,87.937 290.154,89.437 296.5,92.5 Z"/></g>
<g><path style="opacity:0.102" fill="#682441" d="M 452.5,89.5 C 451.5,89.1667 450.833,88.5 450.5,87.5C 452.203,86.3398 452.869,87.0065 452.5,89.5 Z"/></g>
<g><path style="opacity:0.459" fill="#9e5646" d="M 537.5,85.5 C 539.262,86.2623 540.262,87.5956 540.5,89.5C 538.738,88.7377 537.738,87.4044 537.5,85.5 Z"/></g>
<g><path style="opacity:1" fill="#dfbc40" d="M 447.5,84.5 C 448.167,84.8333 448.833,85.1667 449.5,85.5C 450.338,85.8417 450.672,86.5084 450.5,87.5C 450.833,88.5 451.5,89.1667 452.5,89.5C 452.5,90.1667 452.833,90.5 453.5,90.5C 453.5,91.1667 453.5,91.8333 453.5,92.5C 450.529,90.5574 448.529,87.8908 447.5,84.5 Z"/></g>
<g><path style="opacity:0.784" fill="#9e4f4f" d="M 467.5,90.5 C 466.432,91.4345 465.099,91.7678 463.5,91.5C 464.705,89.8624 466.038,89.5291 467.5,90.5 Z"/></g>
<g><path style="opacity:0.133" fill="#7c1454" d="M 507.5,89.5 C 507.5,89.8333 507.5,90.1667 507.5,90.5C 506.833,90.8333 506.167,91.1667 505.5,91.5C 505.5,90.1667 506.167,89.5 507.5,89.5 Z"/></g>
<g><path style="opacity:0.675" fill="#8c364a" d="M 421.5,86.5 C 420.529,88.4832 419.529,90.4832 418.5,92.5C 418.167,92.5 417.833,92.5 417.5,92.5C 417.845,89.8021 419.178,87.8021 421.5,86.5 Z"/></g>
<g><path style="opacity:0.365" fill="#9a4a4d" d="M 453.5,90.5 C 455.717,91.3686 458.05,91.702 460.5,91.5C 458.735,92.4614 456.735,92.7947 454.5,92.5C 454.167,92.5 453.833,92.5 453.5,92.5C 453.5,91.8333 453.5,91.1667 453.5,90.5 Z"/></g>
<g><path style="opacity:0.376" fill="#a35a4c" d="M 505.5,91.5 C 503.866,92.1611 502.033,92.4944 500,92.5C 496.85,92.6397 494.017,91.973 491.5,90.5C 492.265,90.0766 493.098,89.7432 494,89.5C 497.638,91.1848 501.471,91.8514 505.5,91.5 Z"/></g>
<g><path style="opacity:0.588" fill="#8c384b" d="M 540.5,89.5 C 542.727,90.4006 543.727,92.0672 543.5,94.5C 542.11,93.1007 541.11,91.4341 540.5,89.5 Z"/></g>
<g><path style="opacity:1" fill="#e2c63d" d="M 491.5,90.5 C 494.017,91.973 496.85,92.6397 500,92.5C 502.033,92.4944 503.866,92.1611 505.5,91.5C 506.167,91.1667 506.833,90.8333 507.5,90.5C 507.384,94.7572 505.551,95.7572 502,93.5C 499.992,93.3068 498.492,93.9735 497.5,95.5C 496.5,95.5 495.5,95.5 494.5,95.5C 492.374,94.9518 490.374,94.2852 488.5,93.5C 487.432,92.5655 486.099,92.2322 484.5,92.5C 478.171,92.3763 472.171,93.3763 466.5,95.5C 462.633,95.2417 458.966,95.9084 455.5,97.5C 455.167,97.5 454.833,97.5 454.5,97.5C 455.347,96.0337 456.68,95.2004 458.5,95C 456.934,94.3918 455.6,93.5585 454.5,92.5C 456.735,92.7947 458.735,92.4614 460.5,91.5C 461.5,91.5 462.5,91.5 463.5,91.5C 465.099,91.7678 466.432,91.4345 467.5,90.5C 475.619,88.1083 483.619,88.1083 491.5,90.5 Z"/></g>
<g><path style="opacity:0.78" fill="#ab6853" d="M 484.5,92.5 C 486.099,92.2322 487.432,92.5655 488.5,93.5C 486.999,94.4427 485.665,94.1094 484.5,92.5 Z"/></g>
<g><path style="opacity:0.996" fill="#a93f1d" d="M 133.5,96.5 C 141.174,96.3336 148.841,96.5003 156.5,97C 175.565,97.5602 193.565,102.06 210.5,110.5C 195.368,116.269 180.035,121.769 164.5,127C 182.043,132.302 199.709,137.136 217.5,141.5C 217.5,157.5 217.5,173.5 217.5,189.5C 216.833,189.5 216.5,189.833 216.5,190.5C 216.5,190.833 216.5,191.167 216.5,191.5C 209.318,205.199 202.652,219.199 196.5,233.5C 193.349,231.927 190.016,230.927 186.5,230.5C 183.062,229.776 181.396,231.109 181.5,234.5C 181.39,236.374 182.056,237.874 183.5,239C 187.92,239.768 192.253,239.602 196.5,238.5C 203.893,249.687 207.226,262.021 206.5,275.5C 204.052,296.064 195.886,314.064 182,329.5C 178.725,311.065 174.225,293.065 168.5,275.5C 168.599,272.763 168.265,270.096 167.5,267.5C 167.5,263.833 167.5,260.167 167.5,256.5C 167.481,246.536 171.648,238.87 180,233.5C 180.333,227.833 180.667,222.167 181,216.5C 184.058,208.724 186.225,200.724 187.5,192.5C 189.436,175.887 190.269,159.22 190,142.5C 184.336,136.498 177.336,133.832 169,134.5C 158.201,134.376 148.701,137.709 140.5,144.5C 125.264,152.195 109.597,159.028 93.5,165C 92.9693,171.415 92.9693,177.915 93.5,184.5C 93.3359,187.187 93.5026,189.854 94,192.5C 96.6667,201.167 99.3333,209.833 102,218.5C 102.667,222.833 102.667,227.167 102,231.5C 101.617,232.056 101.117,232.389 100.5,232.5C 99.6879,231.007 98.3545,230.34 96.5,230.5C 92.9429,230.887 89.6095,231.887 86.5,233.5C 80.6168,220.733 74.4501,208.066 68,195.5C 60.519,178.947 57.6857,161.614 59.5,143.5C 60.1408,142.518 60.8075,141.518 61.5,140.5C 60.7542,139.264 60.4208,137.93 60.5,136.5C 61.5793,130.77 62.9126,125.103 64.5,119.5C 68.449,112.409 74.449,107.576 82.5,105C 99.0609,99.5732 116.061,96.7399 133.5,96.5 Z"/></g>
<g><path style="opacity:0.184" fill="#852756" d="M 466.5,95.5 C 463.191,97.3699 459.525,98.3699 455.5,98.5C 455.5,98.1667 455.5,97.8333 455.5,97.5C 458.966,95.9084 462.633,95.2417 466.5,95.5 Z"/></g>
<g><path style="opacity:0.165" fill="#8d334e" d="M 494.5,95.5 C 495.5,95.5 496.5,95.5 497.5,95.5C 500.542,95.7329 503.208,96.7329 505.5,98.5C 501.475,98.3699 497.809,97.3699 494.5,95.5 Z"/></g>
<g><path style="opacity:1" fill="#ca994b" d="M 417.5,92.5 C 417.833,92.5 418.167,92.5 418.5,92.5C 417.426,99.5254 417.759,106.525 419.5,113.5C 419.167,113.5 418.833,113.5 418.5,113.5C 417.351,108.487 416.018,103.487 414.5,98.5C 415.091,96.2575 416.091,94.2575 417.5,92.5 Z"/></g>
<g><path style="opacity:0.412" fill="#9d504c" d="M 454.5,97.5 C 454.833,97.5 455.167,97.5 455.5,97.5C 455.5,97.8333 455.5,98.1667 455.5,98.5C 452.302,99.7868 448.969,100.453 445.5,100.5C 448.215,98.9281 451.215,97.9281 454.5,97.5 Z"/></g>
<g><path style="opacity:0.929" fill="#995c37" d="M 445.5,100.5 C 442.895,101.803 440.228,103.136 437.5,104.5C 437.33,103.178 437.663,102.011 438.5,101C 440.81,100.503 443.143,100.337 445.5,100.5 Z"/></g>
<g><path style="opacity:0.706" fill="#a85653" d="M 544.5,95.5 C 545.815,98.6274 545.482,101.627 543.5,104.5C 543.963,101.518 544.296,98.5176 544.5,95.5 Z"/></g>
<g><path style="opacity:0.243" fill="#811f43" d="M 519.5,101.5 C 522.142,101.488 523.475,102.821 523.5,105.5C 522.069,105.119 521.236,104.119 521,102.5C 519.893,103.712 519.393,103.379 519.5,101.5 Z"/></g>
<g><path style="opacity:0.447" fill="#8e3c4f" d="M 523.5,105.5 C 524.338,105.842 524.672,106.508 524.5,107.5C 522.302,107.591 521.969,106.925 523.5,105.5 Z"/></g>
<g><path style="opacity:0.91" fill="#a35a4d" d="M 436.5,107.5 C 435.935,111.537 434.601,115.203 432.5,118.5C 432.782,114.32 434.115,110.653 436.5,107.5 Z"/></g>
<g><path style="opacity:0.69" fill="#9a5247" d="M 543.5,106.5 C 543.689,110.037 543.023,113.37 541.5,116.5C 541.167,116.5 540.833,116.5 540.5,116.5C 540.59,112.786 541.59,109.452 543.5,106.5 Z"/></g>
<g><path style="opacity:1" fill="#fefcfc" d="M 357.5,114.5 C 359.099,114.232 360.432,114.566 361.5,115.5C 361.5,122.5 361.5,129.5 361.5,136.5C 361.334,142.842 361.5,149.175 362,155.5C 368.182,159.424 369.015,164.258 364.5,170C 369.171,180.684 373.837,191.35 378.5,202C 367.101,208.767 355.434,209.267 343.5,203.5C 342.449,202.778 341.782,201.778 341.5,200.5C 342.167,200.5 342.5,200.167 342.5,199.5C 342.5,199.167 342.5,198.833 342.5,198.5C 346.811,189.269 351.145,179.936 355.5,170.5C 351.24,165.423 351.573,160.757 356.5,156.5C 357.496,150.202 357.83,143.868 357.5,137.5C 357.5,129.833 357.5,122.167 357.5,114.5 Z"/></g>
<g><path style="opacity:1" fill="#163443" d="M 361.5,115.5 C 372.359,119.62 383.359,123.454 394.5,127C 383.496,130.281 372.496,133.447 361.5,136.5C 361.5,129.5 361.5,122.5 361.5,115.5 Z"/></g>
<g><path style="opacity:0.4" fill="#903951" d="M 418.5,113.5 C 418.833,113.5 419.167,113.5 419.5,113.5C 420.642,117.071 421.309,120.738 421.5,124.5C 419.517,121.201 418.517,117.534 418.5,113.5 Z"/></g>
<g><path style="opacity:0.012" fill="#7f2d4c" d="M 432.5,118.5 C 432.843,120.483 432.176,121.817 430.5,122.5C 430.229,120.62 430.896,119.287 432.5,118.5 Z"/></g>
<g><path style="opacity:0.027" fill="#89344f" d="M 525.5,112.5 C 526.75,112.577 527.583,113.244 528,114.5C 529.171,118.518 530.337,122.518 531.5,126.5C 529.21,122.082 527.21,117.416 525.5,112.5 Z"/></g>
<g><path style="opacity:0.859" fill="#b34f42" d="M 430.5,122.5 C 432.129,124.196 431.796,125.196 429.5,125.5C 429.263,124.209 429.596,123.209 430.5,122.5 Z"/></g>
<g><path style="opacity:1" fill="#2c5771" d="M 269.5,124.5 C 273.167,124.5 276.833,124.5 280.5,124.5C 280.5,138.5 280.5,152.5 280.5,166.5C 266.993,166.375 253.66,167.875 240.5,171C 232.246,172.876 225.079,176.709 219,182.5C 218.5,168.837 218.333,155.171 218.5,141.5C 219.614,138.551 221.614,136.385 224.5,135C 238.64,127.882 253.64,124.382 269.5,124.5 Z"/></g>
<g><path style="opacity:1" fill="#224b5f" d="M 269.5,124.5 C 285.845,123.166 302.178,124.332 318.5,128C 328.208,129.682 336.208,134.182 342.5,141.5C 342.5,155.833 342.5,170.167 342.5,184.5C 338.288,178.712 332.622,174.879 325.5,173C 310.751,169.115 295.751,166.948 280.5,166.5C 280.5,152.5 280.5,138.5 280.5,124.5C 276.833,124.5 273.167,124.5 269.5,124.5 Z"/></g>
<g><path style="opacity:1" fill="#904342" d="M 456.5,126.5 C 450.833,125.167 445.167,125.167 439.5,126.5C 439.167,126.5 438.833,126.5 438.5,126.5C 438.804,125.85 439.137,125.183 439.5,124.5C 444.467,123.338 449.467,123.171 454.5,124C 455.756,124.417 456.423,125.25 456.5,126.5 Z"/></g>
<g><path style="opacity:0.604" fill="#873049" d="M 524.5,127.5 C 523.395,126.4 522.062,125.733 520.5,125.5C 515.073,125.218 509.74,125.551 504.5,126.5C 504.577,125.25 505.244,124.417 506.5,124C 511.869,123.607 517.035,123.441 522,123.5C 523.481,124.471 524.315,125.804 524.5,127.5 Z"/></g>
<g><path style="opacity:0.024" fill="#8d2c5c" d="M 540.5,116.5 C 540.833,116.5 541.167,116.5 541.5,116.5C 541.219,120.188 540.719,123.855 540,127.5C 539.292,128.381 538.458,129.047 537.5,129.5C 538.181,125.078 539.181,120.744 540.5,116.5 Z"/></g>
<g><path style="opacity:1" fill="#faf51c" d="M 456.5,126.5 C 456.738,128.404 457.738,129.738 459.5,130.5C 460.031,132.544 461.198,134.211 463,135.5C 463.5,141.825 463.666,148.158 463.5,154.5C 462.5,154.5 461.5,154.5 460.5,154.5C 460.5,151.833 460.5,149.167 460.5,146.5C 460.5,144.5 460.5,142.5 460.5,140.5C 459.5,140.5 458.5,140.5 457.5,140.5C 457.167,140.5 456.833,140.5 456.5,140.5C 454.833,140.5 453.167,140.5 451.5,140.5C 451.167,139.5 450.5,138.833 449.5,138.5C 448.094,138.027 447.427,137.027 447.5,135.5C 446.066,132.953 444.4,130.619 442.5,128.5C 441.5,127.833 440.5,127.167 439.5,126.5C 445.167,125.167 450.833,125.167 456.5,126.5 Z"/></g>
<g><path style="opacity:1" fill="#fbf71b" d="M 520.5,125.5 C 519.833,126.833 519.167,128.167 518.5,129.5C 517.167,130.167 516.167,131.167 515.5,132.5C 515.167,133.167 514.833,133.833 514.5,134.5C 512.5,135.833 510.833,137.5 509.5,139.5C 506.167,139.5 502.833,139.5 499.5,139.5C 499.216,141.415 499.549,143.081 500.5,144.5C 500.5,145.5 500.5,146.5 500.5,147.5C 500.5,149.5 500.5,151.5 500.5,153.5C 499.5,153.5 498.5,153.5 497.5,153.5C 497.299,147.807 497.132,142.14 497,136.5C 498.796,133.522 500.962,130.856 503.5,128.5C 503.328,127.508 503.662,126.842 504.5,126.5C 509.74,125.551 515.073,125.218 520.5,125.5 Z"/></g>
<g><path style="opacity:1" fill="#cd9f4e" d="M 520.5,125.5 C 522.062,125.733 523.395,126.4 524.5,127.5C 524.833,127.5 525.167,127.5 525.5,127.5C 525.937,129.074 526.937,130.241 528.5,131C 528.272,131.399 527.938,131.565 527.5,131.5C 524.739,130.08 521.739,129.413 518.5,129.5C 519.167,128.167 519.833,126.833 520.5,125.5 Z"/></g>
<g><path style="opacity:0.851" fill="#a05344" d="M 456.5,126.5 C 458.262,127.262 459.262,128.596 459.5,130.5C 457.738,129.738 456.738,128.404 456.5,126.5 Z"/></g>
<g><path style="opacity:0.322" fill="#9e5447" d="M 421.5,124.5 C 424.09,128.804 424.09,133.137 421.5,137.5C 421.5,133.167 421.5,128.833 421.5,124.5 Z"/></g>
<g><path style="opacity:1" fill="#cc9c4f" d="M 438.5,126.5 C 438.833,126.5 439.167,126.5 439.5,126.5C 440.5,127.167 441.5,127.833 442.5,128.5C 441.209,128.263 440.209,128.596 439.5,129.5C 438.395,130.6 437.062,131.267 435.5,131.5C 434.761,131.631 434.094,131.464 433.5,131C 434.381,130.292 435.047,129.458 435.5,128.5C 435.973,127.094 436.973,126.427 438.5,126.5 Z"/></g>
<g><path style="opacity:0.314" fill="#882e4d" d="M 439.5,129.5 C 440.209,128.596 441.209,128.263 442.5,128.5C 444.4,130.619 446.066,132.953 447.5,135.5C 446.5,135.5 445.5,135.5 444.5,135.5C 444.236,132.243 442.57,130.243 439.5,129.5 Z"/></g>
<g><path style="opacity:0.459" fill="#a15461" d="M 435.5,128.5 C 435.047,129.458 434.381,130.292 433.5,131C 434.094,131.464 434.761,131.631 435.5,131.5C 432.764,135.412 431.93,134.745 433,129.5C 433.671,128.748 434.504,128.414 435.5,128.5 Z"/></g>
<g><path style="opacity:0.239" fill="#8f3558" d="M 518.5,129.5 C 518.5,130.5 518.5,131.5 518.5,132.5C 517.5,132.5 516.5,132.5 515.5,132.5C 516.167,131.167 517.167,130.167 518.5,129.5 Z"/></g>
<g><path style="opacity:0.729" fill="#b0636b" d="M 525.5,127.5 C 527.305,128.237 528.971,129.237 530.5,130.5C 529.743,132.404 528.743,132.737 527.5,131.5C 527.938,131.565 528.272,131.399 528.5,131C 526.937,130.241 525.937,129.074 525.5,127.5 Z"/></g>
<g><path style="opacity:0.494" fill="#a95f4e" d="M 429.5,125.5 C 427.899,135.004 426.899,144.671 426.5,154.5C 424.031,155.067 421.698,155.067 419.5,154.5C 419.216,152.585 419.549,150.919 420.5,149.5C 420.5,150.833 420.5,152.167 420.5,153.5C 422.167,153.5 423.833,153.5 425.5,153.5C 426.199,145.525 426.699,137.525 427,129.5C 427.934,128.142 428.768,126.808 429.5,125.5 Z"/></g>
<g><path style="opacity:0.655" fill="#ab6351" d="M 531.5,126.5 C 532.966,127.347 533.8,128.68 534,130.5C 534.5,136.825 534.666,143.158 534.5,149.5C 533.707,145.661 533.04,141.661 532.5,137.5C 533.644,133.726 533.311,130.06 531.5,126.5 Z"/></g>
<g><path style="opacity:1" fill="#f2d6a0" d="M 187.5,192.5 C 182.342,205.854 174.842,217.854 165,228.5C 162.962,237.613 163.128,246.613 165.5,255.5C 163.168,268.825 155.168,275.825 141.5,276.5C 130.165,276.503 121.498,271.837 115.5,262.5C 115.5,260.5 115.5,258.5 115.5,256.5C 116.966,255.653 117.8,254.32 118,252.5C 118.657,244.477 118.49,236.477 117.5,228.5C 120.663,230.811 123.997,232.978 127.5,235C 131.896,237.299 136.562,238.466 141.5,238.5C 141.832,206.996 141.498,175.662 140.5,144.5C 148.701,137.709 158.201,134.376 169,134.5C 177.336,133.832 184.336,136.498 190,142.5C 190.269,159.22 189.436,175.887 187.5,192.5 Z"/></g>
<g><path style="opacity:0.525" fill="#a95f51" d="M 503.5,128.5 C 500.962,130.856 498.796,133.522 497,136.5C 497.132,142.14 497.299,147.807 497.5,153.5C 498.5,153.5 499.5,153.5 500.5,153.5C 500.5,151.5 500.5,149.5 500.5,147.5C 501.338,147.842 501.672,148.508 501.5,149.5C 502.301,151.042 502.634,152.708 502.5,154.5C 500.208,154.756 498.041,154.423 496,153.5C 495.333,147.5 495.333,141.5 496,135.5C 497.572,132.138 500.072,129.804 503.5,128.5 Z"/></g>
<g><path style="opacity:0.039" fill="#882259" d="M 538.5,132.5 C 539.117,132.611 539.617,132.944 540,133.5C 540.498,136.817 540.665,140.15 540.5,143.5C 538.783,140.155 538.116,136.489 538.5,132.5 Z"/></g>
<g><path style="opacity:0.133" fill="#873252" d="M 449.5,138.5 C 450.5,138.833 451.167,139.5 451.5,140.5C 450.167,140.5 449.5,139.833 449.5,138.5 Z"/></g>
<g><path style="opacity:0.882" fill="#ca9c43" d="M 509.5,139.5 C 509.5,139.833 509.5,140.167 509.5,140.5C 506.833,140.5 504.167,140.5 501.5,140.5C 500.566,141.568 500.232,142.901 500.5,144.5C 499.549,143.081 499.216,141.415 499.5,139.5C 502.833,139.5 506.167,139.5 509.5,139.5 Z"/></g>
<g><path style="opacity:0.169" fill="#872b53" d="M 514.5,134.5 C 513.527,137.135 511.86,139.135 509.5,140.5C 509.5,140.167 509.5,139.833 509.5,139.5C 510.833,137.5 512.5,135.833 514.5,134.5 Z"/></g>
<g><path style="opacity:0.075" fill="#922c55" d="M 451.5,140.5 C 453.167,140.5 454.833,140.5 456.5,140.5C 456.209,141.649 455.376,142.316 454,142.5C 452.624,142.316 451.791,141.649 451.5,140.5 Z"/></g>
<g><path style="opacity:0.059" fill="#7f1561" d="M 501.5,140.5 C 501.906,143.719 501.906,146.719 501.5,149.5C 501.672,148.508 501.338,147.842 500.5,147.5C 500.5,146.5 500.5,145.5 500.5,144.5C 500.232,142.901 500.566,141.568 501.5,140.5 Z"/></g>
<g><path style="opacity:0.165" fill="#862853" d="M 457.5,140.5 C 458.5,140.5 459.5,140.5 460.5,140.5C 460.5,142.5 460.5,144.5 460.5,146.5C 459.523,149.287 459.19,152.287 459.5,155.5C 458.178,151.434 458.178,147.267 459.5,143C 458.244,142.583 457.577,141.75 457.5,140.5 Z"/></g>
<g><path style="opacity:1" fill="#fee7b8" d="M 140.5,144.5 C 141.498,175.662 141.832,206.996 141.5,238.5C 136.562,238.466 131.896,237.299 127.5,235C 123.997,232.978 120.663,230.811 117.5,228.5C 108.947,219.744 102.113,209.744 97,198.5C 96.1424,193.626 94.9757,188.96 93.5,184.5C 92.9693,177.915 92.9693,171.415 93.5,165C 109.597,159.028 125.264,152.195 140.5,144.5 Z"/></g>
<g><path style="opacity:0.192" fill="#a25f44" d="M 459.5,130.5 C 461.836,132.004 463.669,134.004 465,136.5C 465.411,143.033 464.911,149.366 463.5,155.5C 462.5,155.5 461.5,155.5 460.5,155.5C 460.167,155.5 459.833,155.5 459.5,155.5C 459.19,152.287 459.523,149.287 460.5,146.5C 460.5,149.167 460.5,151.833 460.5,154.5C 461.5,154.5 462.5,154.5 463.5,154.5C 463.666,148.158 463.5,141.825 463,135.5C 461.198,134.211 460.031,132.544 459.5,130.5 Z"/></g>
<g><path style="opacity:0.176" fill="#86215a" d="M 420.5,144.5 C 420.5,146.167 420.5,147.833 420.5,149.5C 419.549,150.919 419.216,152.585 419.5,154.5C 418.29,151.07 418.624,147.737 420.5,144.5 Z"/></g>
<g><path style="opacity:0.384" fill="#9e514e" d="M 540.5,144.5 C 541.637,147.32 542.137,150.32 542,153.5C 539.395,154.814 536.895,154.814 534.5,153.5C 536.5,153.5 538.5,153.5 540.5,153.5C 540.5,150.5 540.5,147.5 540.5,144.5 Z"/></g>
<g><path style="opacity:0.702" fill="#871437" d="M 460.5,155.5 C 461.5,155.5 462.5,155.5 463.5,155.5C 462.74,157.985 461.74,157.985 460.5,155.5 Z"/></g>
<g><path style="opacity:0.094" fill="#7b1e3f" d="M 474.5,167.5 C 474.768,165.901 474.434,164.568 473.5,163.5C 471.692,164.918 471.025,166.918 471.5,169.5C 470.596,168.791 470.263,167.791 470.5,166.5C 469.5,166.5 468.5,166.5 467.5,166.5C 468.398,165.842 469.398,165.176 470.5,164.5C 467.572,163.516 464.572,163.183 461.5,163.5C 463.487,162.657 465.654,161.99 468,161.5C 470.434,162.322 472.934,162.656 475.5,162.5C 475.784,164.415 475.451,166.081 474.5,167.5 Z"/></g>
<g><path style="opacity:0.094" fill="#8d374f" d="M 491.5,164.5 C 489.482,163.067 487.815,163.401 486.5,165.5C 486.5,164.5 486.5,163.5 486.5,162.5C 488.781,162.077 490.448,162.744 491.5,164.5 Z"/></g>
<g><path style="opacity:0.114" fill="#7b3739" d="M 540.5,164.5 C 539.348,163.375 538.348,163.375 537.5,164.5C 536.833,164.833 536.167,165.167 535.5,165.5C 535.484,163.516 536.484,162.516 538.5,162.5C 539.713,162.747 540.38,163.414 540.5,164.5 Z"/></g>
<g><path style="opacity:0.733" fill="#812049" d="M 555.5,165.5 C 552.495,163.701 549.162,163.034 545.5,163.5C 545.811,162.522 546.478,161.855 547.5,161.5C 549.966,161.65 552.632,161.983 555.5,162.5C 555.5,163.5 555.5,164.5 555.5,165.5 Z"/></g>
<g><path style="opacity:0.341" fill="#802148" d="M 571.5,165.5 C 570.778,164.449 569.778,163.782 568.5,163.5C 567.833,166.833 567.167,170.167 566.5,173.5C 566.631,172.761 566.464,172.094 566,171.5C 564.601,172.227 563.101,172.727 561.5,173C 562.056,173.383 562.389,173.883 562.5,174.5C 560.824,173.817 560.157,172.483 560.5,170.5C 567.167,169.833 567.167,169.167 560.5,168.5C 560.5,167.5 560.5,166.5 560.5,165.5C 562.288,165.785 563.955,165.452 565.5,164.5C 563.257,163.526 560.924,163.192 558.5,163.5C 557.517,167.298 557.183,171.298 557.5,175.5C 556.5,175.5 555.5,175.5 554.5,175.5C 556.586,172.322 556.92,168.988 555.5,165.5C 556.273,163.451 557.773,162.117 560,161.5C 563.586,162.024 567.419,162.357 571.5,162.5C 571.5,163.5 571.5,164.5 571.5,165.5 Z"/></g>
<g><path style="opacity:0.098" fill="#842547" d="M 584.5,163.5 C 583.833,163.5 583.167,163.5 582.5,163.5C 580.219,163.077 578.552,163.744 577.5,165.5C 577.5,166.167 577.5,166.833 577.5,167.5C 576.833,168.167 576.167,168.833 575.5,169.5C 575.993,167.194 576.326,164.861 576.5,162.5C 579.385,162.194 582.052,162.527 584.5,163.5 Z"/></g>
<g><path style="opacity:0.086" fill="#862b59" d="M 417.5,164.5 C 415.544,162.825 414.211,163.158 413.5,165.5C 413.167,165.5 412.833,165.5 412.5,165.5C 412.5,164.5 412.5,163.5 412.5,162.5C 414.781,162.077 416.448,162.744 417.5,164.5 Z"/></g>
<g><path style="opacity:0.055" fill="#8a3746" d="M 461.5,163.5 C 461.821,165.048 462.821,165.715 464.5,165.5C 464.5,165.833 464.5,166.167 464.5,166.5C 461.724,166.089 461.057,166.922 462.5,169C 461.293,170.3 460.626,171.8 460.5,173.5C 460.053,170.686 459.886,167.686 460,164.5C 457.281,163.556 454.448,163.223 451.5,163.5C 451.176,167.555 451.509,171.555 452.5,175.5C 453.429,174.311 453.762,172.978 453.5,171.5C 454.791,171.263 455.791,171.596 456.5,172.5C 454.824,173.183 454.157,174.517 454.5,176.5C 452.766,177.562 451.099,177.562 449.5,176.5C 449.5,172.167 449.5,167.833 449.5,163.5C 448.5,163.5 447.5,163.5 446.5,163.5C 446.5,164.833 446.5,166.167 446.5,167.5C 446.167,167.5 445.833,167.5 445.5,167.5C 445.762,166.022 445.429,164.689 444.5,163.5C 444.036,165.975 443.036,167.975 441.5,169.5C 442.219,167.236 442.552,164.903 442.5,162.5C 448.923,162.209 455.256,162.542 461.5,163.5 Z M 455.5,166.5 C 457.337,166.639 457.67,167.306 456.5,168.5C 455.702,168.043 455.369,167.376 455.5,166.5 Z"/></g>
<g><path style="opacity:1" fill="#ecd04d" d="M 461.5,163.5 C 464.572,163.183 467.572,163.516 470.5,164.5C 469.398,165.176 468.398,165.842 467.5,166.5C 467.5,169.167 467.5,171.833 467.5,174.5C 467.44,175.043 467.107,175.376 466.5,175.5C 465.833,172.023 465.166,168.689 464.5,165.5C 462.821,165.715 461.821,165.048 461.5,163.5 Z"/></g>
<g><path style="opacity:0.494" fill="#8b374d" d="M 592.5,163.5 C 591.5,163.5 590.5,163.5 589.5,163.5C 589.66,165.199 589.494,166.866 589,168.5C 587.708,169.791 586.542,169.791 585.5,168.5C 586.496,168.586 587.329,168.252 588,167.5C 588.494,165.866 588.66,164.199 588.5,162.5C 590.099,162.232 591.432,162.566 592.5,163.5 Z"/></g>
<g><path style="opacity:0.137" fill="#7c1949" d="M 495.5,163.5 C 496.568,162.566 497.901,162.232 499.5,162.5C 499.5,166.167 499.5,169.833 499.5,173.5C 499.167,173.5 498.833,173.5 498.5,173.5C 499.069,169.671 498.402,166.337 496.5,163.5C 496.167,163.5 495.833,163.5 495.5,163.5 Z"/></g>
<g><path style="opacity:0.235" fill="#97484a" d="M 429.5,165.5 C 428.737,166.268 427.737,166.768 426.5,167C 429.871,169.706 430.204,172.539 427.5,175.5C 428.018,174.423 428.352,173.256 428.5,172C 427.487,169.976 426.154,168.143 424.5,166.5C 426.045,165.548 427.712,165.215 429.5,165.5 Z"/></g>
<g><path style="opacity:0.461" fill="#8e3755" d="M 440.5,171.5 C 438.426,169.325 437.093,166.658 436.5,163.5C 435.386,166.156 435.386,168.823 436.5,171.5C 434.612,169.012 433.945,166.012 434.5,162.5C 439.159,162.015 440.492,163.848 438.5,168C 439.973,168.71 440.64,169.876 440.5,171.5 Z"/></g>
<g><path style="opacity:0.988" fill="#f3de46" d="M 460.5,173.5 C 460.5,173.833 460.5,174.167 460.5,174.5C 459.652,175.625 458.652,175.625 457.5,174.5C 457.672,173.508 457.338,172.842 456.5,172.5C 455.791,171.596 454.791,171.263 453.5,171.5C 453.762,172.978 453.429,174.311 452.5,175.5C 451.509,171.555 451.176,167.555 451.5,163.5C 454.448,163.223 457.281,163.556 460,164.5C 459.886,167.686 460.053,170.686 460.5,173.5 Z M 455.5,166.5 C 455.369,167.376 455.702,168.043 456.5,168.5C 457.67,167.306 457.337,166.639 455.5,166.5 Z"/></g>
<g><path style="opacity:1" fill="#f6e940" d="M 396.5,163.5 C 397.167,163.5 397.833,163.5 398.5,163.5C 399.11,164.391 399.443,165.391 399.5,166.5C 400.11,167.391 400.443,168.391 400.5,169.5C 400.672,170.492 400.338,171.158 399.5,171.5C 399.631,170.624 399.298,169.957 398.5,169.5C 397.692,171.423 397.192,173.423 397,175.5C 396.501,171.514 396.334,167.514 396.5,163.5 Z"/></g>
<g><path style="opacity:0.012" fill="#6f1850" d="M 399.5,166.5 C 401.048,166.821 401.715,167.821 401.5,169.5C 401.167,169.5 400.833,169.5 400.5,169.5C 400.443,168.391 400.11,167.391 399.5,166.5 Z"/></g>
<g><path style="opacity:0.118" fill="#812451" d="M 429.5,163.5 C 422.552,162.426 420.885,164.759 424.5,170.5C 423.504,170.586 422.671,170.252 422,169.5C 421.503,167.19 421.337,164.857 421.5,162.5C 424.385,162.194 427.052,162.527 429.5,163.5 Z"/></g>
<g><path style="opacity:0.937" fill="#e3c746" d="M 491.5,164.5 C 491.5,164.833 491.5,165.167 491.5,165.5C 491.328,166.492 491.662,167.158 492.5,167.5C 492.12,169.698 492.787,171.365 494.5,172.5C 494.5,173.833 494.5,175.167 494.5,176.5C 493.508,176.672 492.842,176.338 492.5,175.5C 490.989,173.559 488.989,173.059 486.5,174C 485.748,174.671 485.414,175.504 485.5,176.5C 484.833,176.5 484.167,176.5 483.5,176.5C 483.5,175.167 483.5,173.833 483.5,172.5C 485.213,171.365 485.88,169.698 485.5,167.5C 485.833,166.833 486.167,166.167 486.5,165.5C 487.815,163.401 489.482,163.067 491.5,164.5 Z"/></g>
<g><path style="opacity:0.533" fill="#761a41" d="M 491.5,165.5 C 493.698,165.409 494.031,166.075 492.5,167.5C 491.662,167.158 491.328,166.492 491.5,165.5 Z"/></g>
<g><path style="opacity:0.149" fill="#8e3d48" d="M 545.5,163.5 C 545.5,167.833 545.5,172.167 545.5,176.5C 543.302,176.88 541.635,176.213 540.5,174.5C 541.496,174.414 542.329,174.748 543,175.5C 543.483,174.552 543.649,173.552 543.5,172.5C 544.167,169.5 544.833,166.5 545.5,163.5 Z"/></g>
<g><path style="opacity:1" fill="#f8f327" d="M 577.5,167.5 C 577.5,166.833 577.5,166.167 577.5,165.5C 578.117,165.389 578.617,165.056 579,164.5C 579.667,167.833 579.667,171.167 579,174.5C 578.56,172.134 578.06,169.801 577.5,167.5 Z"/></g>
<g><path style="opacity:0.997" fill="#2b2e34" d="M 217.5,141.5 C 217.833,141.5 218.167,141.5 218.5,141.5C 218.333,155.171 218.5,168.837 219,182.5C 225.079,176.709 232.246,172.876 240.5,171C 253.66,167.875 266.993,166.375 280.5,166.5C 295.751,166.948 310.751,169.115 325.5,173C 332.622,174.879 338.288,178.712 342.5,184.5C 342.5,189.167 342.5,193.833 342.5,198.5C 342.5,198.833 342.5,199.167 342.5,199.5C 341.833,199.5 341.5,199.833 341.5,200.5C 341.782,201.778 342.449,202.778 343.5,203.5C 342.06,210.766 340.393,218.099 338.5,225.5C 336.284,226.203 334.451,227.536 333,229.5C 331.242,235.116 328.908,240.449 326,245.5C 326.685,238.868 327.518,232.202 328.5,225.5C 329.833,224.833 329.833,224.167 328.5,223.5C 328.5,221.833 328.5,220.167 328.5,218.5C 329.833,217.833 329.833,217.167 328.5,216.5C 328.5,215.5 328.5,214.5 328.5,213.5C 328.5,212.833 328.167,212.5 327.5,212.5C 313.317,203.035 297.651,198.369 280.5,198.5C 263.043,197.821 247.21,202.487 233,212.5C 232.023,215.241 231.523,218.075 231.5,221C 232.623,229.184 233.457,237.351 234,245.5C 231.607,240.322 229.607,234.988 228,229.5C 226.429,227.077 224.263,225.744 221.5,225.5C 218.088,214.47 216.421,203.137 216.5,191.5C 216.5,191.167 216.5,190.833 216.5,190.5C 217.167,190.5 217.5,190.167 217.5,189.5C 217.5,173.5 217.5,157.5 217.5,141.5 Z"/></g>
<g><path style="opacity:1" fill="#f2db4a" d="M 381.5,164.5 C 381.5,165.167 381.833,165.5 382.5,165.5C 382.675,167.621 382.341,169.621 381.5,171.5C 379.283,172.369 376.95,172.702 374.5,172.5C 374.719,173.675 374.386,174.675 373.5,175.5C 372.509,171.555 372.176,167.555 372.5,163.5C 375.609,163.264 378.609,163.597 381.5,164.5 Z M 375.5,166.5 C 376.5,166.5 377.5,166.5 378.5,166.5C 378.5,167.5 378.5,168.5 378.5,169.5C 377.5,169.5 376.5,169.5 375.5,169.5C 375.5,168.5 375.5,167.5 375.5,166.5 Z"/></g>
<g><path style="opacity:0.678" fill="#8a374a" d="M 374.5,165.5 C 376.167,165.5 377.833,165.5 379.5,165.5C 379.66,167.199 379.494,168.866 379,170.5C 377.667,171.833 376.333,171.833 375,170.5C 374.506,168.866 374.34,167.199 374.5,165.5 Z M 375.5,166.5 C 375.5,167.5 375.5,168.5 375.5,169.5C 376.5,169.5 377.5,169.5 378.5,169.5C 378.5,168.5 378.5,167.5 378.5,166.5C 377.5,166.5 376.5,166.5 375.5,166.5 Z"/></g>
<g><path style="opacity:0.09" fill="#7e2055" d="M 409.5,172.5 C 409.5,173.833 409.5,175.167 409.5,176.5C 409.167,176.5 408.833,176.5 408.5,176.5C 408.5,176.167 408.5,175.833 408.5,175.5C 408.5,171.5 408.5,167.5 408.5,163.5C 406.821,163.285 405.821,163.952 405.5,165.5C 405.167,165.5 404.833,165.5 404.5,165.5C 404.5,164.5 404.5,163.5 404.5,162.5C 406.167,162.5 407.833,162.5 409.5,162.5C 409.5,165.833 409.5,169.167 409.5,172.5 Z"/></g>
<g><path style="opacity:1" fill="#b37841" d="M 412.5,165.5 C 412.833,165.5 413.167,165.5 413.5,165.5C 413.821,167.048 414.821,167.715 416.5,167.5C 416.5,168.833 416.5,170.167 416.5,171.5C 415.5,171.5 414.5,171.5 413.5,171.5C 413.649,170.448 413.483,169.448 413,168.5C 412.623,169.942 411.79,170.942 410.5,171.5C 410.971,169.421 411.637,167.421 412.5,165.5 Z"/></g>
<g><path style="opacity:0.867" fill="#a8604b" d="M 417.5,164.5 C 419.065,166.509 420.065,168.843 420.5,171.5C 418.166,169.824 417.166,167.491 417.5,164.5 Z"/></g>
<g><path style="opacity:0.024" fill="#973e5f" d="M 453.5,165.5 C 455.167,165.5 456.833,165.5 458.5,165.5C 458.5,166.833 458.5,168.167 458.5,169.5C 456.833,169.5 455.167,169.5 453.5,169.5C 453.5,168.167 453.5,166.833 453.5,165.5 Z M 455.5,166.5 C 455.369,167.376 455.702,168.043 456.5,168.5C 457.67,167.306 457.337,166.639 455.5,166.5 Z"/></g>
<g><path style="opacity:0.996" fill="#af763d" d="M 512.5,165.5 C 512.833,165.5 513.167,165.5 513.5,165.5C 514.1,166.9 515.1,167.9 516.5,168.5C 515.167,168.833 515.167,169.167 516.5,169.5C 516.179,171.048 515.179,171.715 513.5,171.5C 513.869,169.007 513.203,168.34 511.5,169.5C 511.557,168.391 511.89,167.391 512.5,166.5C 512.5,166.167 512.5,165.833 512.5,165.5 Z"/></g>
<g><path style="opacity:0.176" fill="#8c344f" d="M 520.5,171.5 C 518.799,169.269 517.466,166.769 516.5,164C 514.843,163.275 513.843,163.775 513.5,165.5C 513.167,165.5 512.833,165.5 512.5,165.5C 512.5,164.5 512.5,163.5 512.5,162.5C 514.467,162.261 516.301,162.594 518,163.5C 519.136,166.096 519.969,168.763 520.5,171.5 Z"/></g>
<g><path style="opacity:1" fill="#cca340" d="M 537.5,164.5 C 538.167,165.833 538.833,167.167 539.5,168.5C 538.508,168.328 537.842,168.662 537.5,169.5C 537.5,169.833 537.5,170.167 537.5,170.5C 537.5,170.833 537.5,171.167 537.5,171.5C 536.394,167.432 535.394,167.599 534.5,172C 534.57,172.765 534.903,173.265 535.5,173.5C 535.631,174.376 535.298,175.043 534.5,175.5C 533.571,174.311 533.238,172.978 533.5,171.5C 533.971,169.421 534.637,167.421 535.5,165.5C 536.167,165.167 536.833,164.833 537.5,164.5 Z"/></g>
<g><path style="opacity:0.855" fill="#a35f49" d="M 540.5,164.5 C 542.585,166.684 543.585,169.351 543.5,172.5C 541.415,170.316 540.415,167.649 540.5,164.5 Z"/></g>
<g><path style="opacity:0.998" fill="#f0dc4d" d="M 558.5,163.5 C 560.924,163.192 563.257,163.526 565.5,164.5C 563.955,165.452 562.288,165.785 560.5,165.5C 560.5,166.5 560.5,167.5 560.5,168.5C 567.167,169.167 567.167,169.833 560.5,170.5C 560.157,172.483 560.824,173.817 562.5,174.5C 562.833,174.5 563.167,174.5 563.5,174.5C 564.167,174.5 564.833,174.5 565.5,174.5C 563.393,175.468 561.059,175.802 558.5,175.5C 558.5,171.5 558.5,167.5 558.5,163.5 Z"/></g>
<g><path style="opacity:0.078" fill="#842a4b" d="M 571.5,165.5 C 572.833,166.833 574.167,168.167 575.5,169.5C 575.631,170.376 575.298,171.043 574.5,171.5C 573.479,170.099 572.479,168.765 571.5,167.5C 571.5,166.833 571.5,166.167 571.5,165.5 Z"/></g>
<g><path style="opacity:1" fill="#ead048" d="M 429.5,163.5 C 429.5,164.167 429.5,164.833 429.5,165.5C 427.712,165.215 426.045,165.548 424.5,166.5C 426.154,168.143 427.487,169.976 428.5,172C 428.352,173.256 428.018,174.423 427.5,175.5C 426.127,175.657 424.793,175.49 423.5,175C 426.779,173.732 427.112,172.232 424.5,170.5C 420.885,164.759 422.552,162.426 429.5,163.5 Z"/></g>
<g><path style="opacity:0.569" fill="#b9844c" d="M 449.5,176.5 C 448.167,176.5 446.833,176.5 445.5,176.5C 445.5,174.5 445.5,172.5 445.5,170.5C 446.833,170.167 446.833,169.833 445.5,169.5C 445.5,169.167 445.5,168.833 445.5,168.5C 446.167,168.5 446.5,168.167 446.5,167.5C 446.5,166.167 446.5,164.833 446.5,163.5C 447.5,163.5 448.5,163.5 449.5,163.5C 449.5,167.833 449.5,172.167 449.5,176.5 Z"/></g>
<g><path style="opacity:0.22" fill="#8a3f35" d="M 487.5,168.5 C 488.5,168.5 489.5,168.5 490.5,168.5C 490.5,169.5 490.5,170.5 490.5,171.5C 489.5,171.5 488.5,171.5 487.5,171.5C 487.5,170.5 487.5,169.5 487.5,168.5 Z"/></g>
<g><path style="opacity:0.141" fill="#853146" d="M 531.5,173.5 C 525.061,174.881 523.061,172.381 525.5,166C 527.441,165.257 529.274,165.424 531,166.5C 531.483,165.552 531.649,164.552 531.5,163.5C 528.162,163.065 525.162,163.732 522.5,165.5C 522.414,164.504 522.748,163.671 523.5,163C 525.63,161.739 527.797,161.239 530,161.5C 532.016,162.955 532.849,164.955 532.5,167.5C 530.94,167.481 529.44,167.148 528,166.5C 524.686,168.794 524.686,171.128 528,173.5C 529.292,172.209 530.458,172.209 531.5,173.5 Z"/></g>
<g><path style="opacity:1" fill="#faf335" d="M 568.5,163.5 C 569.778,163.782 570.778,164.449 571.5,165.5C 571.5,166.167 571.5,166.833 571.5,167.5C 570.032,169.916 569.365,172.583 569.5,175.5C 568.517,171.702 568.183,167.702 568.5,163.5 Z"/></g>
<g><path style="opacity:0.208" fill="#872c53" d="M 582.5,168.5 C 584.346,170.03 585.346,172.03 585.5,174.5C 583.461,173.089 582.461,171.089 582.5,168.5 Z"/></g>
<g><path style="opacity:0.196" fill="#842b45" d="M 398.5,163.5 C 397.833,163.5 397.167,163.5 396.5,163.5C 395.515,167.634 395.182,171.968 395.5,176.5C 394.833,176.167 394.167,175.833 393.5,175.5C 393.5,175.167 393.5,174.833 393.5,174.5C 393.823,170.774 393.489,167.107 392.5,163.5C 391.513,166.768 391.18,170.102 391.5,173.5C 390.292,174.234 388.959,174.567 387.5,174.5C 386.883,174.389 386.383,174.056 386,173.5C 384.68,160.475 383.847,160.809 383.5,174.5C 382.833,173.5 382.167,172.5 381.5,171.5C 382.341,169.621 382.675,167.621 382.5,165.5C 382.5,164.5 382.5,163.5 382.5,162.5C 384.167,162.5 385.833,162.5 387.5,162.5C 387.177,166.226 387.511,169.893 388.5,173.5C 389.086,173.291 389.586,172.957 390,172.5C 390.498,169.183 390.665,165.85 390.5,162.5C 393.385,162.194 396.052,162.527 398.5,163.5 Z"/></g>
<g><path style="opacity:0.306" fill="#7b1a47" d="M 403.5,168.5 C 402.968,171.46 402.301,171.793 401.5,169.5C 402.167,169.167 402.833,168.833 403.5,168.5 Z"/></g>
<g><path style="opacity:1" fill="#e9d33e" d="M 417.5,164.5 C 417.166,167.491 418.166,169.824 420.5,171.5C 420.5,172.167 420.5,172.833 420.5,173.5C 420.5,174.833 419.833,175.5 418.5,175.5C 417.866,174.053 416.699,173.387 415,173.5C 413.624,173.684 412.791,174.351 412.5,175.5C 410.952,175.179 410.285,174.179 410.5,172.5C 410.5,172.167 410.5,171.833 410.5,171.5C 411.79,170.942 412.623,169.942 413,168.5C 413.483,169.448 413.649,170.448 413.5,171.5C 414.5,171.5 415.5,171.5 416.5,171.5C 416.5,170.167 416.5,168.833 416.5,167.5C 414.821,167.715 413.821,167.048 413.5,165.5C 414.211,163.158 415.544,162.825 417.5,164.5 Z"/></g>
<g><path style="opacity:1" fill="#e9ca53" d="M 473.5,163.5 C 473.335,166.85 473.502,170.183 474,173.5C 475.836,175.131 475.336,175.798 472.5,175.5C 471.539,173.735 471.205,171.735 471.5,169.5C 471.025,166.918 471.692,164.918 473.5,163.5 Z"/></g>
<g><path style="opacity:1" fill="#edd53e" d="M 496.5,163.5 C 498.402,166.337 499.069,169.671 498.5,173.5C 499.952,174.302 501.618,174.802 503.5,175C 501.19,175.497 498.857,175.663 496.5,175.5C 496.5,171.5 496.5,167.5 496.5,163.5 Z"/></g>
<g><path style="opacity:1" fill="#d9b447" d="M 582.5,163.5 C 582.5,164.833 582.5,166.167 582.5,167.5C 580.631,169.635 579.964,172.302 580.5,175.5C 579.5,175.5 578.5,175.5 577.5,175.5C 577.649,174.448 577.483,173.448 577,172.5C 576.632,173.91 575.799,174.91 574.5,175.5C 573.108,174.395 571.941,173.061 571,171.5C 570.79,173.058 570.29,174.391 569.5,175.5C 569.365,172.583 570.032,169.916 571.5,167.5C 572.479,168.765 573.479,170.099 574.5,171.5C 575.298,171.043 575.631,170.376 575.5,169.5C 576.167,168.833 576.833,168.167 577.5,167.5C 578.06,169.801 578.56,172.134 579,174.5C 579.667,171.167 579.667,167.833 579,164.5C 578.617,165.056 578.117,165.389 577.5,165.5C 578.552,163.744 580.219,163.077 582.5,163.5 Z"/></g>
<g><path style="opacity:1" fill="#e6c54b" d="M 582.5,163.5 C 583.167,163.5 583.833,163.5 584.5,163.5C 584.5,164.167 584.5,164.833 584.5,165.5C 584.328,166.492 584.662,167.158 585.5,167.5C 585.5,167.833 585.5,168.167 585.5,168.5C 586.542,169.791 587.708,169.791 589,168.5C 589.494,166.866 589.66,165.199 589.5,163.5C 590.5,163.5 591.5,163.5 592.5,163.5C 593.139,164.097 593.472,164.93 593.5,166C 592.401,168.036 591.068,169.869 589.5,171.5C 588.333,173.041 587,174.375 585.5,175.5C 585.5,175.167 585.5,174.833 585.5,174.5C 585.346,172.03 584.346,170.03 582.5,168.5C 582.5,168.167 582.5,167.833 582.5,167.5C 582.5,166.167 582.5,164.833 582.5,163.5 Z"/></g>
<g><path style="opacity:0.169" fill="#7a1758" d="M 584.5,165.5 C 586.424,165.711 586.757,166.377 585.5,167.5C 584.662,167.158 584.328,166.492 584.5,165.5 Z"/></g>
<g><path style="opacity:1" fill="#f7e443" d="M 393.5,174.5 C 392.508,174.672 391.842,174.338 391.5,173.5C 391.18,170.102 391.513,166.768 392.5,163.5C 393.489,167.107 393.823,170.774 393.5,174.5 Z"/></g>
<g><path style="opacity:1" fill="#cca144" d="M 404.5,165.5 C 404.833,165.5 405.167,165.5 405.5,165.5C 404.782,167.137 404.616,168.803 405,170.5C 405.333,170.167 405.667,169.833 406,169.5C 406.483,170.448 406.649,171.448 406.5,172.5C 404.672,173.794 402.672,174.794 400.5,175.5C 400.567,174.041 400.234,172.708 399.5,171.5C 400.338,171.158 400.672,170.492 400.5,169.5C 400.833,169.5 401.167,169.5 401.5,169.5C 402.301,171.793 402.968,171.46 403.5,168.5C 403.263,167.209 403.596,166.209 404.5,165.5 Z"/></g>
<g><path style="opacity:0.741" fill="#dcb847" d="M 440.5,171.5 C 441.338,171.158 441.672,170.492 441.5,169.5C 443.036,167.975 444.036,165.975 444.5,163.5C 445.429,164.689 445.762,166.022 445.5,167.5C 445.5,167.833 445.5,168.167 445.5,168.5C 445.5,168.833 445.5,169.167 445.5,169.5C 445.5,169.833 445.5,170.167 445.5,170.5C 444.229,172.109 443.229,173.942 442.5,176C 440.934,176.765 439.601,176.598 438.5,175.5C 438.34,173.847 437.674,172.514 436.5,171.5C 435.386,168.823 435.386,166.156 436.5,163.5C 437.093,166.658 438.426,169.325 440.5,171.5 Z"/></g>
<g><path style="opacity:0.063" fill="#822a44" d="M 485.5,167.5 C 485.88,169.698 485.213,171.365 483.5,172.5C 483.796,170.597 484.463,168.93 485.5,167.5 Z"/></g>
<g><path style="opacity:0.133" fill="#8d334c" d="M 492.5,167.5 C 494.256,168.552 494.923,170.219 494.5,172.5C 492.787,171.365 492.12,169.698 492.5,167.5 Z"/></g>
<g><path style="opacity:0.757" fill="#8c3b52" d="M 512.5,166.5 C 511.89,167.391 511.557,168.391 511.5,169.5C 511.179,170.817 510.846,172.151 510.5,173.5C 510.747,174.713 511.414,175.38 512.5,175.5C 511.292,176.782 509.958,176.782 508.5,175.5C 509.321,173.217 509.988,170.884 510.5,168.5C 510.747,167.287 511.414,166.62 512.5,166.5 Z"/></g>
<g><path style="opacity:0.663" fill="#a5585d" d="M 381.5,164.5 C 378.609,163.597 375.609,163.264 372.5,163.5C 372.176,167.555 372.509,171.555 373.5,175.5C 374.386,174.675 374.719,173.675 374.5,172.5C 376.95,172.702 379.283,172.369 381.5,171.5C 381.631,172.376 381.298,173.043 380.5,173.5C 378.056,174.222 375.722,175.222 373.5,176.5C 372,176.547 371,175.881 370.5,174.5C 371.338,170.584 371.672,166.751 371.5,163C 373.5,162.5 375.5,162 377.5,161.5C 379.653,161.561 380.986,162.561 381.5,164.5 Z"/></g>
<g><path style="opacity:0.994" fill="#ead041" d="M 387.5,174.5 C 387.5,175.167 387.167,175.5 386.5,175.5C 385.391,175.443 384.391,175.11 383.5,174.5C 383.847,160.809 384.68,160.475 386,173.5C 386.383,174.056 386.883,174.389 387.5,174.5 Z"/></g>
<g><path style="opacity:0.78" fill="#b87e48" d="M 396.5,163.5 C 396.334,167.514 396.501,171.514 397,175.5C 397.192,173.423 397.692,171.423 398.5,169.5C 399.298,169.957 399.631,170.624 399.5,171.5C 400.234,172.708 400.567,174.041 400.5,175.5C 399.883,175.389 399.383,175.056 399,174.5C 398.29,175.973 397.124,176.64 395.5,176.5C 395.182,171.968 395.515,167.634 396.5,163.5 Z"/></g>
<g><path style="opacity:1" fill="#ebd63d" d="M 520.5,171.5 C 520.843,173.483 520.176,174.817 518.5,175.5C 518.03,174.307 517.03,173.64 515.5,173.5C 513.97,173.64 512.97,174.307 512.5,175.5C 511.414,175.38 510.747,174.713 510.5,173.5C 510.846,172.151 511.179,170.817 511.5,169.5C 513.203,168.34 513.869,169.007 513.5,171.5C 515.179,171.715 516.179,171.048 516.5,169.5C 516.5,169.167 516.5,168.833 516.5,168.5C 515.1,167.9 514.1,166.9 513.5,165.5C 513.843,163.775 514.843,163.275 516.5,164C 517.466,166.769 518.799,169.269 520.5,171.5 Z"/></g>
<g><path style="opacity:0.125" fill="#93434a" d="M 522.5,165.5 C 522.5,168.167 522.5,170.833 522.5,173.5C 521.596,174.209 521.263,175.209 521.5,176.5C 520.209,176.737 519.209,176.404 518.5,175.5C 520.176,174.817 520.843,173.483 520.5,171.5C 521.167,169.5 521.833,167.5 522.5,165.5 Z"/></g>
<g><path style="opacity:1" fill="#f0e03a" d="M 540.5,164.5 C 540.415,167.649 541.415,170.316 543.5,172.5C 543.649,173.552 543.483,174.552 543,175.5C 542.329,174.748 541.496,174.414 540.5,174.5C 539.081,173.549 537.415,173.216 535.5,173.5C 534.903,173.265 534.57,172.765 534.5,172C 535.394,167.599 536.394,167.432 537.5,171.5C 539.048,171.179 539.715,170.179 539.5,168.5C 538.833,167.167 538.167,165.833 537.5,164.5C 538.348,163.375 539.348,163.375 540.5,164.5 Z"/></g>
<g><path style="opacity:0.678" fill="#7d2931" d="M 537.5,169.5 C 537.842,168.662 538.508,168.328 539.5,168.5C 539.715,170.179 539.048,171.179 537.5,171.5C 537.5,171.167 537.5,170.833 537.5,170.5C 538.833,170.167 538.833,169.833 537.5,169.5 Z"/></g>
<g><path style="opacity:0.98" fill="#e9ca4d" d="M 545.5,163.5 C 549.162,163.034 552.495,163.701 555.5,165.5C 556.92,168.988 556.586,172.322 554.5,175.5C 551.713,176.477 548.713,176.81 545.5,176.5C 545.5,172.167 545.5,167.833 545.5,163.5 Z M 550.5,174.5 C 550.167,174.5 549.833,174.5 549.5,174.5C 549.187,171.753 549.52,169.086 550.5,166.5C 551.946,167.171 552.612,168.338 552.5,170C 551.926,171.607 551.26,173.107 550.5,174.5 Z"/></g>
<g><path style="opacity:0.089" fill="#8d3052" d="M 550.5,174.5 C 551.26,173.107 551.926,171.607 552.5,170C 552.612,168.338 551.946,167.171 550.5,166.5C 549.52,169.086 549.187,171.753 549.5,174.5C 548.883,174.389 548.383,174.056 548,173.5C 547.503,170.854 547.336,168.187 547.5,165.5C 552.501,164.671 554.668,166.671 554,171.5C 553.28,173.056 552.113,174.056 550.5,174.5 Z M 550.5,174.5 C 550.167,174.5 549.833,174.5 549.5,174.5C 549.187,171.753 549.52,169.086 550.5,166.5C 551.946,167.171 552.612,168.338 552.5,170C 551.926,171.607 551.26,173.107 550.5,174.5 Z"/></g>
<g><path style="opacity:0.149" fill="#9b4e46" d="M 406.5,172.5 C 406.285,174.179 406.952,175.179 408.5,175.5C 408.5,175.833 408.5,176.167 408.5,176.5C 406.876,176.64 405.71,175.973 405,174.5C 403.876,177.842 402.376,178.175 400.5,175.5C 402.672,174.794 404.672,173.794 406.5,172.5 Z"/></g>
<g><path style="opacity:1" fill="#f3e441" d="M 408.5,175.5 C 406.952,175.179 406.285,174.179 406.5,172.5C 406.649,171.448 406.483,170.448 406,169.5C 405.667,169.833 405.333,170.167 405,170.5C 404.616,168.803 404.782,167.137 405.5,165.5C 405.821,163.952 406.821,163.285 408.5,163.5C 408.5,167.5 408.5,171.5 408.5,175.5 Z"/></g>
<g><path style="opacity:0.231" fill="#7a2839" d="M 418.5,175.5 C 416.451,174.359 414.451,174.359 412.5,175.5C 412.791,174.351 413.624,173.684 415,173.5C 416.699,173.387 417.866,174.053 418.5,175.5 Z"/></g>
<g><path style="opacity:0.592" fill="#9e6746" d="M 464.5,165.5 C 465.166,168.689 465.833,172.023 466.5,175.5C 467.107,175.376 467.44,175.043 467.5,174.5C 468.043,174.56 468.376,174.893 468.5,175.5C 467.311,176.429 465.978,176.762 464.5,176.5C 464.5,173.167 464.5,169.833 464.5,166.5C 464.5,166.167 464.5,165.833 464.5,165.5 Z"/></g>
<g><path style="opacity:0.247" fill="#85343d" d="M 518.5,175.5 C 516.451,174.359 514.451,174.359 512.5,175.5C 512.97,174.307 513.97,173.64 515.5,173.5C 517.03,173.64 518.03,174.307 518.5,175.5 Z"/></g>
<g><path style="opacity:0.922" fill="#995249" d="M 533.5,171.5 C 533.238,172.978 533.571,174.311 534.5,175.5C 535.298,175.043 535.631,174.376 535.5,173.5C 537.415,173.216 539.081,173.549 540.5,174.5C 537.266,175.576 533.932,176.243 530.5,176.5C 531.11,175.609 531.443,174.609 531.5,173.5C 532.167,172.833 532.833,172.167 533.5,171.5 Z"/></g>
<g><path style="opacity:0.518" fill="#8f4047" d="M 568.5,163.5 C 568.183,167.702 568.517,171.702 569.5,175.5C 570.29,174.391 570.79,173.058 571,171.5C 571.941,173.061 573.108,174.395 574.5,175.5C 575.799,174.91 576.632,173.91 577,172.5C 577.483,173.448 577.649,174.448 577.5,175.5C 578.5,175.5 579.5,175.5 580.5,175.5C 579.964,172.302 580.631,169.635 582.5,167.5C 582.5,167.833 582.5,168.167 582.5,168.5C 581.527,170.948 581.194,173.615 581.5,176.5C 576.284,177.286 571.284,177.286 566.5,176.5C 566.672,175.508 566.338,174.842 565.5,174.5C 564.833,174.5 564.167,174.5 563.5,174.5C 564.209,173.596 565.209,173.263 566.5,173.5C 567.167,170.167 567.833,166.833 568.5,163.5 Z"/></g>
<g><path style="opacity:0.059" fill="#9b4a50" d="M 424.5,170.5 C 427.112,172.232 426.779,173.732 423.5,175C 424.793,175.49 426.127,175.657 427.5,175.5C 426.866,176.947 425.699,177.613 424,177.5C 421.889,177.299 420.055,176.633 418.5,175.5C 419.833,175.5 420.5,174.833 420.5,173.5C 421.873,173.657 423.207,173.49 424.5,173C 425.598,172.23 425.598,171.397 424.5,170.5 Z"/></g>
<g><path style="opacity:0.024" fill="#852560" d="M 436.5,171.5 C 437.674,172.514 438.34,173.847 438.5,175.5C 436.824,174.817 436.157,173.483 436.5,171.5 Z"/></g>
<g><path style="opacity:0.278" fill="#7d1f4f" d="M 492.5,175.5 C 489.997,174.235 487.663,174.568 485.5,176.5C 485.414,175.504 485.748,174.671 486.5,174C 488.989,173.059 490.989,173.559 492.5,175.5 Z"/></g>
<g><path style="opacity:1" fill="#e3c34c" d="M 531.5,173.5 C 531.443,174.609 531.11,175.609 530.5,176.5C 526.966,178.244 524.299,177.244 522.5,173.5C 522.5,170.833 522.5,168.167 522.5,165.5C 525.162,163.732 528.162,163.065 531.5,163.5C 531.649,164.552 531.483,165.552 531,166.5C 529.274,165.424 527.441,165.257 525.5,166C 523.061,172.381 525.061,174.881 531.5,173.5 Z"/></g>
<g><path style="opacity:0.922" fill="#d0a152" d="M 391.5,173.5 C 391.842,174.338 392.508,174.672 393.5,174.5C 393.5,174.833 393.5,175.167 393.5,175.5C 393.158,176.338 392.492,176.672 391.5,176.5C 389.585,176.784 387.919,176.451 386.5,175.5C 387.167,175.5 387.5,175.167 387.5,174.5C 388.959,174.567 390.292,174.234 391.5,173.5 Z"/></g>
<g><path style="opacity:0.537" fill="#bc6952" d="M 409.5,172.5 C 409.833,172.5 410.167,172.5 410.5,172.5C 410.285,174.179 410.952,175.179 412.5,175.5C 411.779,177.382 410.779,177.715 409.5,176.5C 409.5,175.167 409.5,173.833 409.5,172.5 Z"/></g>
<g><path style="opacity:0.035" fill="#861264" d="M 456.5,172.5 C 457.338,172.842 457.672,173.508 457.5,174.5C 456.883,174.389 456.383,174.056 456,173.5C 455.768,174.737 455.268,175.737 454.5,176.5C 454.157,174.517 454.824,173.183 456.5,172.5 Z"/></g>
<g><path style="opacity:0.529" fill="#a4546a" d="M 457.5,174.5 C 458.652,175.625 459.652,175.625 460.5,174.5C 463.152,175.294 462.985,175.96 460,176.5C 458.624,176.316 457.791,175.649 457.5,174.5 Z"/></g>
<g><path style="opacity:0.875" fill="#be8949" d="M 483.5,172.5 C 483.5,173.833 483.5,175.167 483.5,176.5C 482.883,176.389 482.383,176.056 482,175.5C 480.701,176.98 479.034,177.646 477,177.5C 474.992,177.693 473.492,177.026 472.5,175.5C 475.336,175.798 475.836,175.131 474,173.5C 473.502,170.183 473.335,166.85 473.5,163.5C 474.434,164.568 474.768,165.901 474.5,167.5C 474.03,170.346 474.863,172.679 477,174.5C 477.667,173.833 478.333,173.167 479,172.5C 479.498,169.183 479.665,165.85 479.5,162.5C 480.5,162.5 481.5,162.5 482.5,162.5C 482.187,166.042 482.521,169.375 483.5,172.5 Z"/></g>
<g><path style="opacity:1" fill="#fdf943" d="M 480.5,163.5 C 481.808,167.019 481.808,170.685 480.5,174.5C 480.377,171.114 480.377,167.447 480.5,163.5 Z"/></g>
<g><path style="opacity:0.604" fill="#ac6b48" d="M 495.5,163.5 C 495.833,163.5 496.167,163.5 496.5,163.5C 496.5,167.5 496.5,171.5 496.5,175.5C 498.857,175.663 501.19,175.497 503.5,175C 501.618,174.802 499.952,174.302 498.5,173.5C 498.833,173.5 499.167,173.5 499.5,173.5C 501.167,173.5 502.833,173.5 504.5,173.5C 504.5,174.833 504.5,176.167 504.5,177.5C 501.214,176.793 497.881,176.46 494.5,176.5C 494.5,175.167 494.5,173.833 494.5,172.5C 495.477,169.713 495.81,166.713 495.5,163.5 Z"/></g>
<g><path style="opacity:0.616" fill="#ba804f" d="M 558.5,163.5 C 558.5,167.5 558.5,171.5 558.5,175.5C 561.059,175.802 563.393,175.468 565.5,174.5C 566.338,174.842 566.672,175.508 566.5,176.5C 566.44,177.043 566.107,177.376 565.5,177.5C 562.689,176.92 560.023,176.254 557.5,175.5C 557.183,171.298 557.517,167.298 558.5,163.5 Z"/></g>
<g><path style="opacity:0.439" fill="#a55f59" d="M 589.5,171.5 C 589.5,173.167 589.5,174.833 589.5,176.5C 587.233,176.854 585.899,176.521 585.5,175.5C 587,174.375 588.333,173.041 589.5,171.5 Z"/></g>
<g><path style="opacity:0.416" fill="#923c52" d="M 383.5,174.5 C 384.391,175.11 385.391,175.443 386.5,175.5C 387.919,176.451 389.585,176.784 391.5,176.5C 389.712,177.622 387.712,177.789 385.5,177C 384.244,176.583 383.577,175.75 383.5,174.5 Z"/></g>
<g><path style="opacity:0.553" fill="#9d4f50" d="M 435.5,183.5 C 433.076,183.192 430.743,183.526 428.5,184.5C 428.863,185.183 429.196,185.85 429.5,186.5C 427.879,186.213 426.879,185.213 426.5,183.5C 429.645,182.197 432.645,182.197 435.5,183.5 Z"/></g>
<g><path style="opacity:0.441" fill="#b57e40" d="M 525.5,184.5 C 525.5,184.167 525.5,183.833 525.5,183.5C 528.247,183.187 530.914,183.52 533.5,184.5C 533.043,185.298 532.376,185.631 531.5,185.5C 529.735,184.539 527.735,184.205 525.5,184.5 Z"/></g>
<g><path style="opacity:0.271" fill="#934148" d="M 429.5,187.5 C 431.404,187.738 432.738,188.738 433.5,190.5C 431.596,190.262 430.262,189.262 429.5,187.5 Z"/></g>
<g><path style="opacity:0.043" fill="#8d3d52" d="M 530.5,186.5 C 530.5,187.833 529.833,188.5 528.5,188.5C 528.833,187.5 529.5,186.833 530.5,186.5 Z"/></g>
<g><path style="opacity:0.329" fill="#8f4646" d="M 525.5,183.5 C 525.5,183.833 525.5,184.167 525.5,184.5C 523.167,186.5 520.833,188.5 518.5,190.5C 519.833,187.167 522.167,184.833 525.5,183.5 Z"/></g>
<g><path style="opacity:0.192" fill="#8e3c50" d="M 528.5,188.5 C 528.5,190.5 527.5,191.5 525.5,191.5C 526.167,190.167 527.167,189.167 528.5,188.5 Z"/></g>
<g><path style="opacity:0.02" fill="#833454" d="M 525.5,191.5 C 525.5,193.5 524.5,194.5 522.5,194.5C 523.167,193.167 524.167,192.167 525.5,191.5 Z"/></g>
<g><path style="opacity:0.071" fill="#8d3354" d="M 436.5,194.5 C 438.027,194.427 439.027,195.094 439.5,196.5C 437.821,196.715 436.821,196.048 436.5,194.5 Z"/></g>
<g><path style="opacity:0.051" fill="#8c394f" d="M 522.5,194.5 C 522.5,196.5 521.5,197.5 519.5,197.5C 520.167,196.167 521.167,195.167 522.5,194.5 Z"/></g>
<g><path style="opacity:0.993" fill="#fee8b9" d="M 280.5,198.5 C 281.161,236.515 280.494,274.181 278.5,311.5C 270.163,310.331 262.83,306.997 256.5,301.5C 256.158,300.662 255.492,300.328 254.5,300.5C 244.2,289.579 236.7,276.912 232,262.5C 228.94,259.386 225.44,256.886 221.5,255C 219.641,253.442 218.141,251.609 217,249.5C 214.772,242.031 215.105,234.698 218,227.5C 218.816,226.177 219.983,225.511 221.5,225.5C 224.263,225.744 226.429,227.077 228,229.5C 229.607,234.988 231.607,240.322 234,245.5C 233.457,237.351 232.623,229.184 231.5,221C 231.523,218.075 232.023,215.241 233,212.5C 247.21,202.487 263.043,197.821 280.5,198.5 Z"/></g>
<g><path style="opacity:1" fill="#f3d7a1" d="M 280.5,198.5 C 297.651,198.369 313.317,203.035 327.5,212.5C 328.167,212.5 328.5,212.833 328.5,213.5C 328.5,214.5 328.5,215.5 328.5,216.5C 328.5,217.167 328.5,217.833 328.5,218.5C 328.5,220.167 328.5,221.833 328.5,223.5C 328.5,224.167 328.5,224.833 328.5,225.5C 327.518,232.202 326.685,238.868 326,245.5C 328.908,240.449 331.242,235.116 333,229.5C 334.451,227.536 336.284,226.203 338.5,225.5C 341.461,226.393 343.294,228.393 344,231.5C 346.409,238.484 345.742,245.151 342,251.5C 337.152,254.926 332.485,258.592 328,262.5C 327.51,263.793 327.343,265.127 327.5,266.5C 325.597,269.979 323.93,273.646 322.5,277.5C 321.833,277.5 321.5,277.833 321.5,278.5C 317.145,286.542 311.812,293.875 305.5,300.5C 297.77,307.883 288.77,311.55 278.5,311.5C 280.494,274.181 281.161,236.515 280.5,198.5 Z"/></g>
<g><path style="opacity:0.69" fill="#913b48" d="M 440.5,198.5 C 444.1,200.43 447.1,203.097 449.5,206.5C 445.9,204.57 442.9,201.903 440.5,198.5 Z"/></g>
<g><path style="opacity:0.114" fill="#9a474e" d="M 519.5,197.5 C 519.5,198.833 518.833,199.5 517.5,199.5C 517.833,198.5 518.5,197.833 519.5,197.5 Z"/></g>
<g><path style="opacity:1" fill="#6e2614" d="M 187.5,192.5 C 186.225,200.724 184.058,208.724 181,216.5C 180.667,222.167 180.333,227.833 180,233.5C 171.648,238.87 167.481,246.536 167.5,256.5C 166.833,256.167 166.167,255.833 165.5,255.5C 163.128,246.613 162.962,237.613 165,228.5C 174.842,217.854 182.342,205.854 187.5,192.5 Z"/></g>
<g><path style="opacity:1" fill="#f4e92a" d="M 435.5,183.5 C 436.167,183.5 436.5,183.833 436.5,184.5C 437.08,186.749 438.413,188.415 440.5,189.5C 440.833,190.5 441.5,191.167 442.5,191.5C 442.427,193.027 443.094,194.027 444.5,194.5C 445.167,194.5 445.5,194.833 445.5,195.5C 446.167,196.833 447.167,197.833 448.5,198.5C 448.738,200.404 449.738,201.738 451.5,202.5C 451.414,203.496 451.748,204.329 452.5,205C 455.071,206.454 457.738,207.62 460.5,208.5C 462.336,210.588 464.669,211.921 467.5,212.5C 470.008,214.924 473.008,216.59 476.5,217.5C 478.042,218.301 479.708,218.634 481.5,218.5C 484.392,217.606 487.059,216.272 489.5,214.5C 491.674,214.25 493.341,213.25 494.5,211.5C 497.974,209.682 501.307,207.682 504.5,205.5C 506.027,205.573 507.027,204.906 507.5,203.5C 508.167,202.833 508.833,202.167 509.5,201.5C 511.587,200.415 512.92,198.749 513.5,196.5C 514.833,195.833 515.833,194.833 516.5,193.5C 517.401,192.71 518.068,191.71 518.5,190.5C 520.833,188.5 523.167,186.5 525.5,184.5C 527.735,184.205 529.735,184.539 531.5,185.5C 531.5,186.167 531.167,186.5 530.5,186.5C 529.5,186.833 528.833,187.5 528.5,188.5C 527.167,189.167 526.167,190.167 525.5,191.5C 524.167,192.167 523.167,193.167 522.5,194.5C 521.167,195.167 520.167,196.167 519.5,197.5C 518.5,197.833 517.833,198.5 517.5,199.5C 516.5,199.833 515.833,200.5 515.5,201.5C 515.5,202.167 515.167,202.5 514.5,202.5C 512.142,204.529 509.808,206.529 507.5,208.5C 507.5,208.833 507.5,209.167 507.5,209.5C 504.052,210.39 501.052,212.057 498.5,214.5C 496.973,214.427 495.973,215.094 495.5,216.5C 495.5,217.167 495.167,217.5 494.5,217.5C 491.008,218.41 488.008,220.076 485.5,222.5C 484.391,222.557 483.391,222.89 482.5,223.5C 479.549,223.713 476.882,223.046 474.5,221.5C 473.101,220.11 471.434,219.11 469.5,218.5C 468.391,218.443 467.391,218.11 466.5,217.5C 466.158,216.662 465.492,216.328 464.5,216.5C 463.513,213.914 461.513,212.581 458.5,212.5C 457.222,212.218 456.222,211.551 455.5,210.5C 455.027,209.094 454.027,208.427 452.5,208.5C 452.027,207.094 451.027,206.427 449.5,206.5C 447.1,203.097 444.1,200.43 440.5,198.5C 440.167,197.833 439.833,197.167 439.5,196.5C 439.027,195.094 438.027,194.427 436.5,194.5C 435.211,193.363 434.211,192.03 433.5,190.5C 432.738,188.738 431.404,187.738 429.5,187.5C 429.5,187.167 429.5,186.833 429.5,186.5C 429.196,185.85 428.863,185.183 428.5,184.5C 430.743,183.526 433.076,183.192 435.5,183.5 Z"/></g>
<g><path style="opacity:0.475" fill="#b16b59" d="M 488.5,197.5 C 492.013,197.307 495.346,197.974 498.5,199.5C 497.68,201.111 496.346,201.778 494.5,201.5C 492.63,200.044 490.63,198.711 488.5,197.5 Z"/></g>
<g><path style="opacity:1" fill="#ac6552" d="M 473.5,196.5 C 471.458,198.83 468.792,199.996 465.5,200C 467.677,201.202 470.011,201.702 472.5,201.5C 471.866,202.947 470.699,203.613 469,203.5C 466.49,202.602 464.324,201.269 462.5,199.5C 466.011,197.969 469.678,196.969 473.5,196.5 Z"/></g>
<g><path style="opacity:0.925" fill="#aa6158" d="M 502.5,194.5 C 502.285,196.179 502.952,197.179 504.5,197.5C 503.036,199.984 501.369,199.984 499.5,197.5C 500.548,196.452 501.548,195.452 502.5,194.5 Z"/></g>
<g><path style="opacity:0.702" fill="#be7c64" d="M 455.5,196.5 C 456.798,197.116 457.798,197.116 458.5,196.5C 459.014,200.357 458.014,200.357 455.5,196.5 Z"/></g>
<g><path style="opacity:0.031" fill="#7e1351" d="M 445.5,195.5 C 447.5,195.5 448.5,196.5 448.5,198.5C 447.167,197.833 446.167,196.833 445.5,195.5 Z"/></g>
<g><path style="opacity:0.051" fill="#6c2241" d="M 516.5,193.5 C 515.833,194.833 514.833,195.833 513.5,196.5C 513.5,195.5 513.5,194.5 513.5,193.5C 514.5,193.5 515.5,193.5 516.5,193.5 Z"/></g>
<g><path style="opacity:1" fill="#e3c643" d="M 507.5,192.5 C 506.687,194.261 505.687,195.928 504.5,197.5C 502.952,197.179 502.285,196.179 502.5,194.5C 502.557,193.391 502.89,192.391 503.5,191.5C 504.931,190.22 505.598,188.553 505.5,186.5C 506.5,186.5 507.5,186.5 508.5,186.5C 508.167,188.5 507.833,190.5 507.5,192.5 Z"/></g>
<g><path style="opacity:0.741" fill="#a55951" d="M 442.5,191.5 C 443.906,191.973 444.573,192.973 444.5,194.5C 443.094,194.027 442.427,193.027 442.5,191.5 Z"/></g>
<g><path style="opacity:0.043" fill="#90335a" d="M 488.5,197.5 C 485.496,196.911 482.663,195.911 480,194.5C 478.061,194.954 476.228,195.621 474.5,196.5C 475.736,194.172 477.736,193.006 480.5,193C 479.244,192.583 478.577,191.75 478.5,190.5C 476.087,189.32 475.087,187.32 475.5,184.5C 478.909,184.249 482.242,184.583 485.5,185.5C 485.833,186 486.167,186.5 486.5,187C 484.855,188.645 483.188,190.312 481.5,192C 483.54,194.336 485.873,196.169 488.5,197.5 Z"/></g>
<g><path style="opacity:0.247" fill="#8c304e" d="M 518.5,190.5 C 518.068,191.71 517.401,192.71 516.5,193.5C 516.285,191.821 516.952,190.821 518.5,190.5 Z"/></g>
<g><path style="opacity:0.114" fill="#7e2852" d="M 455.5,187.5 C 454.262,186.588 452.928,186.421 451.5,187C 453.518,189.889 454.851,193.055 455.5,196.5C 453.495,195.746 452.828,194.579 453.5,193C 448.833,188.666 449.5,185.832 455.5,184.5C 455.5,185.5 455.5,186.5 455.5,187.5 Z"/></g>
<g><path style="opacity:0.075" fill="#8c3354" d="M 455.5,187.5 C 457.539,188.911 458.539,190.911 458.5,193.5C 456.755,191.967 455.755,189.967 455.5,187.5 Z"/></g>
<g><path style="opacity:1" fill="#f0dd3f" d="M 455.5,187.5 C 455.755,189.967 456.755,191.967 458.5,193.5C 458.5,194.5 458.5,195.5 458.5,196.5C 457.798,197.116 456.798,197.116 455.5,196.5C 454.851,193.055 453.518,189.889 451.5,187C 452.928,186.421 454.262,186.588 455.5,187.5 Z"/></g>
<g><path style="opacity:0.133" fill="#8b3058" d="M 440.5,189.5 C 441.833,189.5 442.5,190.167 442.5,191.5C 441.5,191.167 440.833,190.5 440.5,189.5 Z"/></g>
<g><path style="opacity:1" fill="#f7ea34" d="M 483.5,186.5 C 483.938,186.435 484.272,186.601 484.5,187C 483.084,189.265 481.084,190.431 478.5,190.5C 478.443,189.391 478.11,188.391 477.5,187.5C 479.265,186.539 481.265,186.205 483.5,186.5 Z"/></g>
<g><path style="opacity:0.02" fill="#93355a" d="M 507.5,192.5 C 507.833,190.5 508.167,188.5 508.5,186.5C 507.5,186.5 506.5,186.5 505.5,186.5C 505.598,188.553 504.931,190.22 503.5,191.5C 503.172,186.582 505.505,184.582 510.5,185.5C 510.293,188.241 509.293,190.574 507.5,192.5 Z"/></g>
<g><path style="opacity:0.788" fill="#ad6d3e" d="M 483.5,186.5 C 481.265,186.205 479.265,186.539 477.5,187.5C 476.957,187.44 476.624,187.107 476.5,186.5C 478.973,185.203 481.307,185.203 483.5,186.5 Z"/></g>
<g><path style="opacity:0.929" fill="#a96746" d="M 436.5,184.5 C 438.587,185.585 439.92,187.251 440.5,189.5C 438.413,188.415 437.08,186.749 436.5,184.5 Z"/></g>
<g><path style="opacity:1" fill="#f8ee2e" d="M 488.5,197.5 C 490.63,198.711 492.63,200.044 494.5,201.5C 493.833,201.5 493.167,201.5 492.5,201.5C 489.574,200.539 486.574,199.873 483.5,199.5C 483.167,199.5 482.833,199.5 482.5,199.5C 480.712,198.378 478.712,198.211 476.5,199C 474.68,199.2 473.347,200.034 472.5,201.5C 470.011,201.702 467.677,201.202 465.5,200C 468.792,199.996 471.458,198.83 473.5,196.5C 473.833,196.5 474.167,196.5 474.5,196.5C 476.228,195.621 478.061,194.954 480,194.5C 482.663,195.911 485.496,196.911 488.5,197.5 Z"/></g>
<g><path style="opacity:0.804" fill="#c48e45" d="M 482.5,199.5 C 481.833,199.5 481.167,199.5 480.5,199.5C 477.833,200.167 475.167,200.833 472.5,201.5C 473.347,200.034 474.68,199.2 476.5,199C 478.712,198.211 480.712,198.378 482.5,199.5 Z"/></g>
<g><path style="opacity:0.992" fill="#cc9d45" d="M 483.5,199.5 C 486.574,199.873 489.574,200.539 492.5,201.5C 491.432,202.434 490.099,202.768 488.5,202.5C 487.329,201.655 485.995,200.989 484.5,200.5C 483.833,200.5 483.5,200.167 483.5,199.5 Z"/></g>
<g><path style="opacity:0.753" fill="#a0574a" d="M 513.5,196.5 C 512.92,198.749 511.587,200.415 509.5,201.5C 510.08,199.251 511.413,197.585 513.5,196.5 Z"/></g>
<g><path style="opacity:0.361" fill="#823248" d="M 448.5,198.5 C 450.262,199.262 451.262,200.596 451.5,202.5C 449.738,201.738 448.738,200.404 448.5,198.5 Z"/></g>
<g><path style="opacity:0.145" fill="#75095b" d="M 480.5,199.5 C 481.167,199.5 481.833,199.5 482.5,199.5C 482.833,199.5 483.167,199.5 483.5,199.5C 483.5,200.167 483.833,200.5 484.5,200.5C 483.038,201.471 481.705,201.138 480.5,199.5 Z"/></g>
<g><path style="opacity:0.016" fill="#943d41" d="M 517.5,199.5 C 517.5,200.833 516.833,201.5 515.5,201.5C 515.833,200.5 516.5,199.833 517.5,199.5 Z"/></g>
<g><path style="opacity:1" fill="#6e2714" d="M 93.5,184.5 C 94.9757,188.96 96.1424,193.626 97,198.5C 102.113,209.744 108.947,219.744 117.5,228.5C 118.49,236.477 118.657,244.477 118,252.5C 117.8,254.32 116.966,255.653 115.5,256.5C 115.088,246.33 110.588,238.664 102,233.5C 101.768,234.737 101.268,235.737 100.5,236.5C 100.5,235.167 100.5,233.833 100.5,232.5C 101.117,232.389 101.617,232.056 102,231.5C 102.667,227.167 102.667,222.833 102,218.5C 99.3333,209.833 96.6667,201.167 94,192.5C 93.5026,189.854 93.3359,187.187 93.5,184.5 Z"/></g>
<g><path style="opacity:0.016" fill="#7d0260" d="M 492.5,201.5 C 493.167,201.5 493.833,201.5 494.5,201.5C 493.866,202.947 492.699,203.613 491,203.5C 489.93,203.472 489.097,203.139 488.5,202.5C 490.099,202.768 491.432,202.434 492.5,201.5 Z"/></g>
<g><path style="opacity:0.243" fill="#97434d" d="M 451.5,202.5 C 454.961,203.918 457.961,205.918 460.5,208.5C 457.738,207.62 455.071,206.454 452.5,205C 451.748,204.329 451.414,203.496 451.5,202.5 Z"/></g>
<g><path style="opacity:0.392" fill="#862a45" d="M 507.5,203.5 C 507.027,204.906 506.027,205.573 504.5,205.5C 504.973,204.094 505.973,203.427 507.5,203.5 Z"/></g>
<g><path style="opacity:0.016" fill="#924049" d="M 514.5,202.5 C 513.388,205.946 511.055,207.946 507.5,208.5C 509.808,206.529 512.142,204.529 514.5,202.5 Z"/></g>
<g><path style="opacity:0.651" fill="#af684e" d="M 449.5,206.5 C 451.027,206.427 452.027,207.094 452.5,208.5C 450.973,208.573 449.973,207.906 449.5,206.5 Z"/></g>
<g><path style="opacity:0.29" fill="#8a3152" d="M 504.5,205.5 C 501.307,207.682 497.974,209.682 494.5,211.5C 497.03,208.207 500.363,206.207 504.5,205.5 Z"/></g>
<g><path style="opacity:0.337" fill="#91454d" d="M 452.5,208.5 C 454.027,208.427 455.027,209.094 455.5,210.5C 454.242,211.016 453.242,210.35 452.5,208.5 Z"/></g>
<g><path style="opacity:0.604" fill="#8f3a54" d="M 460.5,208.5 C 463.578,208.587 465.911,209.92 467.5,212.5C 464.669,211.921 462.336,210.588 460.5,208.5 Z"/></g>
<g><path style="opacity:0.063" fill="#842b55" d="M 507.5,209.5 C 506.253,211.178 504.586,212.511 502.5,213.5C 501.311,214.429 499.978,214.762 498.5,214.5C 501.052,212.057 504.052,210.39 507.5,209.5 Z"/></g>
<g><path style="opacity:0.835" fill="#ba7f49" d="M 494.5,211.5 C 493.341,213.25 491.674,214.25 489.5,214.5C 489.5,214.167 489.5,213.833 489.5,213.5C 490.93,212.463 492.597,211.796 494.5,211.5 Z"/></g>
<g><path style="opacity:0.749" fill="#a86f44" d="M 458.5,212.5 C 461.513,212.581 463.513,213.914 464.5,216.5C 462.081,215.636 460.081,214.303 458.5,212.5 Z"/></g>
<g><path style="opacity:0.29" fill="#8f3e51" d="M 467.5,212.5 C 468.978,212.238 470.311,212.571 471.5,213.5C 473.586,214.489 475.253,215.822 476.5,217.5C 473.008,216.59 470.008,214.924 467.5,212.5 Z"/></g>
<g><path style="opacity:0.184" fill="#8b2c4e" d="M 489.5,213.5 C 489.5,213.833 489.5,214.167 489.5,214.5C 487.059,216.272 484.392,217.606 481.5,218.5C 483.418,215.862 486.085,214.195 489.5,213.5 Z"/></g>
<g><path style="opacity:0.043" fill="#8f3e4f" d="M 498.5,214.5 C 498.179,216.048 497.179,216.715 495.5,216.5C 495.973,215.094 496.973,214.427 498.5,214.5 Z"/></g>
<g><path style="opacity:0.592" fill="#b24739" d="M 464.5,216.5 C 465.492,216.328 466.158,216.662 466.5,217.5C 465.075,219.031 464.409,218.698 464.5,216.5 Z"/></g>
<g><path style="opacity:0.016" fill="#7c1b59" d="M 466.5,217.5 C 467.391,218.11 468.391,218.443 469.5,218.5C 469.833,219.167 470.167,219.833 470.5,220.5C 468.368,220.446 467.035,219.446 466.5,217.5 Z"/></g>
<g><path style="opacity:0.996" fill="#d0a047" d="M 469.5,218.5 C 471.434,219.11 473.101,220.11 474.5,221.5C 473.833,221.5 473.167,221.5 472.5,221.5C 471.508,221.672 470.842,221.338 470.5,220.5C 470.167,219.833 469.833,219.167 469.5,218.5 Z"/></g>
<g><path style="opacity:0.271" fill="#8d4645" d="M 494.5,217.5 C 492.272,220.45 489.272,222.116 485.5,222.5C 488.008,220.076 491.008,218.41 494.5,217.5 Z"/></g>
<g><path style="opacity:0.443" fill="#94434f" d="M 472.5,221.5 C 473.167,221.5 473.833,221.5 474.5,221.5C 474.833,222.167 475.167,222.833 475.5,223.5C 473.973,223.573 472.973,222.906 472.5,221.5 Z"/></g>
<g><path style="opacity:1" fill="#d1a548" d="M 474.5,221.5 C 476.882,223.046 479.549,223.713 482.5,223.5C 482.5,223.833 482.5,224.167 482.5,224.5C 482.38,225.586 481.713,226.253 480.5,226.5C 478.555,225.872 476.888,224.872 475.5,223.5C 475.167,222.833 474.833,222.167 474.5,221.5 Z"/></g>
<g><path style="opacity:0.263" fill="#a66149" d="M 485.5,222.5 C 485.027,223.906 484.027,224.573 482.5,224.5C 482.5,224.167 482.5,223.833 482.5,223.5C 483.391,222.89 484.391,222.557 485.5,222.5 Z"/></g>
<g><path style="opacity:0.985" fill="#90aec6" d="M 100.5,232.5 C 100.5,233.833 100.5,235.167 100.5,236.5C 100.047,237.458 99.3805,238.292 98.5,239C 93.9956,240.953 89.6623,240.787 85.5,238.5C 84.2942,236.563 84.6275,234.896 86.5,233.5C 89.6095,231.887 92.9429,230.887 96.5,230.5C 98.3545,230.34 99.6879,231.007 100.5,232.5 Z"/></g>
<g><path style="opacity:0.982" fill="#8faec8" d="M 196.5,233.5 C 197.72,235.284 197.72,236.95 196.5,238.5C 192.253,239.602 187.92,239.768 183.5,239C 182.056,237.874 181.39,236.374 181.5,234.5C 181.396,231.109 183.062,229.776 186.5,230.5C 190.016,230.927 193.349,231.927 196.5,233.5 Z"/></g>
<g><path style="opacity:0.996" fill="#a93f1d" d="M 115.5,256.5 C 115.5,258.5 115.5,260.5 115.5,262.5C 115.5,264.167 115.5,265.833 115.5,267.5C 114.745,270.053 114.078,272.72 113.5,275.5C 108.222,293.277 103.889,311.277 100.5,329.5C 94.1035,323.043 88.9369,315.71 85,307.5C 81.1885,296.899 78.0219,286.233 75.5,275.5C 75.2482,262.172 78.5815,249.839 85.5,238.5C 89.6623,240.787 93.9956,240.953 98.5,239C 99.3805,238.292 100.047,237.458 100.5,236.5C 101.268,235.737 101.768,234.737 102,233.5C 110.588,238.664 115.088,246.33 115.5,256.5 Z"/></g>
<g><path style="opacity:1" fill="#0ba14a" d="M 165.5,255.5 C 166.167,255.833 166.833,256.167 167.5,256.5C 167.5,260.167 167.5,263.833 167.5,267.5C 164.757,267.077 163.424,268.244 163.5,271C 163.748,274.082 165.415,275.582 168.5,275.5C 174.225,293.065 178.725,311.065 182,329.5C 195.886,314.064 204.052,296.064 206.5,275.5C 218.184,278.69 224.684,286.357 226,298.5C 227.664,305.825 228.664,313.159 229,320.5C 202.604,338.227 173.438,346.894 141.5,346.5C 141.5,327.5 141.5,308.5 141.5,289.5C 144.955,288.872 146.122,286.872 145,283.5C 144.184,282.177 143.017,281.511 141.5,281.5C 141.5,279.833 141.5,278.167 141.5,276.5C 155.168,275.825 163.168,268.825 165.5,255.5 Z"/></g>
<g><path style="opacity:1" fill="#f2f6ec" d="M 115.5,267.5 C 119.782,268.686 120.449,271.02 117.5,274.5C 116.264,275.246 114.93,275.579 113.5,275.5C 114.078,272.72 114.745,270.053 115.5,267.5 Z"/></g>
<g><path style="opacity:1" fill="#ecf3eb" d="M 167.5,267.5 C 168.265,270.096 168.599,272.763 168.5,275.5C 165.415,275.582 163.748,274.082 163.5,271C 163.424,268.244 164.757,267.077 167.5,267.5 Z"/></g>
<g><path style="opacity:0.99" fill="#6cbd45" d="M 115.5,262.5 C 121.498,271.837 130.165,276.503 141.5,276.5C 141.5,278.167 141.5,279.833 141.5,281.5C 138.045,282.128 136.878,284.128 138,287.5C 138.816,288.823 139.983,289.489 141.5,289.5C 141.5,308.5 141.5,327.5 141.5,346.5C 109.554,346.892 80.3871,338.225 54,320.5C 53.3974,307.174 56.2308,294.674 62.5,283C 66.5615,279.971 70.8949,277.471 75.5,275.5C 78.0219,286.233 81.1885,296.899 85,307.5C 88.9369,315.71 94.1035,323.043 100.5,329.5C 103.889,311.277 108.222,293.277 113.5,275.5C 114.93,275.579 116.264,275.246 117.5,274.5C 120.449,271.02 119.782,268.686 115.5,267.5C 115.5,265.833 115.5,264.167 115.5,262.5 Z"/></g>
<g><path style="opacity:1" fill="#f8fcf6" d="M 120.5,274.5 C 126.488,274.664 127.821,277.164 124.5,282C 118.403,282.147 117.07,279.647 120.5,274.5 Z"/></g>
<g><path style="opacity:1" fill="#f6fbf8" d="M 158.5,274.5 C 164.488,274.664 165.821,277.164 162.5,282C 156.403,282.147 155.07,279.647 158.5,274.5 Z"/></g>
<g><path style="opacity:0.983" fill="#fefefe" d="M 636.5,277.5 C 650.5,277.5 664.5,277.5 678.5,277.5C 678.5,280.167 678.5,282.833 678.5,285.5C 674.847,296.179 667.513,303.013 656.5,306C 539.5,306.5 422.5,306.667 305.5,306.5C 305.5,304.5 305.5,302.5 305.5,300.5C 311.812,293.875 317.145,286.542 321.5,278.5C 355.833,278.5 390.167,278.5 424.5,278.5C 424.886,285.069 428.219,289.569 434.5,292C 455.833,292.667 477.167,292.667 498.5,292C 504.763,289.583 508.096,285.083 508.5,278.5C 551.337,278.832 594.003,278.499 636.5,277.5 Z"/></g>
<g><path style="opacity:1" fill="#989aa1" d="M 424.5,278.5 C 443.5,278.5 462.5,278.5 481.5,278.5C 482.167,286.5 486.5,290.833 494.5,291.5C 494.5,287.167 494.5,282.833 494.5,278.5C 499.167,278.5 503.833,278.5 508.5,278.5C 508.096,285.083 504.763,289.583 498.5,292C 477.167,292.667 455.833,292.667 434.5,292C 428.219,289.569 424.886,285.069 424.5,278.5 Z"/></g>
<g><path style="opacity:1" fill="#8a8e98" d="M 321.5,278.5 C 321.5,277.833 321.833,277.5 322.5,277.5C 427.167,277.5 531.833,277.5 636.5,277.5C 594.003,278.499 551.337,278.832 508.5,278.5C 503.833,278.5 499.167,278.5 494.5,278.5C 494.5,282.833 494.5,287.167 494.5,291.5C 486.5,290.833 482.167,286.5 481.5,278.5C 462.5,278.5 443.5,278.5 424.5,278.5C 390.167,278.5 355.833,278.5 321.5,278.5 Z"/></g>
<g><path style="opacity:1" fill="#f5faf2" d="M 129.5,279.5 C 135.488,279.664 136.821,282.164 133.5,287C 127.202,287.495 125.868,284.995 129.5,279.5 Z"/></g>
<g><path style="opacity:1" fill="#eef8f2" d="M 149.5,279.5 C 155.488,279.664 156.821,282.164 153.5,287C 147.202,287.495 145.868,284.995 149.5,279.5 Z"/></g>
<g><path style="opacity:1" fill="#f6fbf8" d="M 141.5,281.5 C 143.017,281.511 144.184,282.177 145,283.5C 146.122,286.872 144.955,288.872 141.5,289.5C 139.983,289.489 138.816,288.823 138,287.5C 136.878,284.128 138.045,282.128 141.5,281.5 Z"/></g>
<g><path style="opacity:1" fill="#ebcb93" d="M 305.5,300.5 C 305.5,302.5 305.5,304.5 305.5,306.5C 305.002,316.221 308.002,324.555 314.5,331.5C 286.609,337.535 267.276,327.535 256.5,301.5C 262.83,306.997 270.163,310.331 278.5,311.5C 288.77,311.55 297.77,307.883 305.5,300.5 Z"/></g>
<g><path style="opacity:1" fill="#f3d7a2" d="M 254.5,300.5 C 255.492,300.328 256.158,300.662 256.5,301.5C 267.276,327.535 286.609,337.535 314.5,331.5C 317.397,332.129 320.064,333.129 322.5,334.5C 293.986,381.116 265.652,381.116 237.5,334.5C 247.272,332.556 252.772,326.556 254,316.5C 254.499,311.177 254.666,305.844 254.5,300.5 Z"/></g>
<g><path style="opacity:1" fill="#f1ece9" d="M 237.5,334.5 C 265.652,381.116 293.986,381.116 322.5,334.5C 323.791,334.263 324.791,334.596 325.5,335.5C 317.471,354.866 303.471,367.533 283.5,373.5C 272.924,374.048 263.591,370.881 255.5,364C 246.162,356.13 239.162,346.63 234.5,335.5C 235.209,334.596 236.209,334.263 237.5,334.5 Z"/></g>
<g><path style="opacity:0.991" fill="#fe642e" d="M 234.5,335.5 C 239.162,346.63 246.162,356.13 255.5,364C 263.591,370.881 272.924,374.048 283.5,373.5C 282.791,374.404 281.791,374.737 280.5,374.5C 280.5,389.5 280.5,404.5 280.5,419.5C 274.833,419.5 269.167,419.5 263.5,419.5C 230.174,415.396 200.84,402.396 175.5,380.5C 177.028,374.415 178.861,368.415 181,362.5C 182.377,360.246 183.877,358.08 185.5,356C 201.26,347.694 217.594,340.861 234.5,335.5 Z"/></g>
<g><path style="opacity:1" fill="#db461d" d="M 325.5,335.5 C 342.521,340.677 358.854,347.51 374.5,356C 377.106,357.938 378.939,360.438 380,363.5C 382.297,369.35 383.631,375.35 384,381.5C 358.965,402.79 330.132,415.457 297.5,419.5C 291.833,419.5 286.167,419.5 280.5,419.5C 280.5,404.5 280.5,389.5 280.5,374.5C 281.791,374.737 282.791,374.404 283.5,373.5C 303.471,367.533 317.471,354.866 325.5,335.5 Z"/></g>
</svg>
